<?xml version="1.0" standalone="no"?>
<!DOCTYPE svg PUBLIC "-//W3C//DTD SVG 1.1//EN" "http://www.w3.org/Graphics/SVG/1.1/DTD/svg11.dtd" >
<svg xmlns="http://www.w3.org/2000/svg">
<metadata>Generated by IcoMoon</metadata>
<defs>
<font id="Maco" horiz-adv-x="1024">
<font-face units-per-em="1024" ascent="960" descent="-64" />
<missing-glyph horiz-adv-x="1024" />
<glyph unicode="&#x20;" horiz-adv-x="512" d="" />
<glyph unicode="&#xe900;" glyph-name="shape" d="M742.4 960c-89.088 0-174.592-45.227-230.4-116.651-55.808 71.467-141.312 116.651-230.4 116.651-157.696 0-281.6-135.040-281.6-306.901 0-210.944 174.080-382.848 437.76-644.011l74.24-73.088 74.24 73.643c263.68 260.608 437.76 432.512 437.76 643.413 0 171.947-123.904 306.944-281.6 306.944zM517.12 92.245l-5.12-5.547-5.12 5.547c-243.712 240.555-404.48 399.573-404.48 560.853 0 111.573 76.8 195.285 179.2 195.285 78.848 0 155.648-55.253 182.784-131.669h95.744c26.624 76.416 103.424 131.669 182.272 131.669 102.4 0 179.2-83.712 179.2-195.285 0-161.28-160.768-320.341-404.48-560.853z" />
<glyph unicode="&#xe901;" glyph-name="left-arrow" d="M318.387 434.586l333.517-333.466c14.643-14.592 38.349-14.592 53.018 0 6.781 6.767 10.976 16.122 10.976 26.458s-4.195 19.691-10.975 26.457l-307.073 307.022 307.046 307.021c6.791 6.776 10.993 16.145 10.993 26.496s-4.202 19.72-10.992 26.495l-0.001 0.001c-14.643 14.592-38.4 14.592-53.018 0l-333.517-333.542c-6.685-6.815-10.811-16.161-10.811-26.47 0-10.322 4.136-19.679 10.842-26.502l-0.005 0.005z" />
<glyph unicode="&#xe902;" glyph-name="flash-icon" horiz-adv-x="640" d="M567.893 960l-565.205-577.92h209.664l-161.152-438.528 578.688 578.005h-209.621z" />
<glyph unicode="&#xe903;" glyph-name="camera-icon" d="M456.021 263.979c-25.344 26.709-38.016 59.349-38.016 98.005 0 38.699 13.312 71.339 39.979 98.005 23.849 24.698 57.255 40.033 94.242 40.033 0.618 0 1.235-0.004 1.851-0.013l-0.093 0.001c38.699 0 71.339-13.355 98.005-40.021s40.021-59.307 40.021-98.005c0-37.333-13.355-69.333-40.021-96s-59.307-39.979-98.005-39.979c-38.656 0-71.296 12.672-97.963 37.973zM403.968 212.011c41.387-41.344 91.349-61.995 150.016-61.995s109.013 20.651 151.040 61.995c41.984 41.344 62.976 91.307 62.976 149.973s-20.992 109.013-63.019 151.040c-41.941 41.941-92.288 62.976-150.997 62.976s-108.629-20.992-149.973-63.019c-41.344-41.984-61.995-92.331-61.995-150.997s20.651-108.629 61.995-149.973zM256 534.016v128h128v128h297.984l78.037-86.016h135.979c22.656 0 42.667-8.661 59.989-26.027 17.365-17.323 26.027-37.291 26.027-59.989v-512c0-22.613-8.661-42.325-26.027-58.965-17.323-16.683-37.333-25.003-59.989-25.003h-681.984c-22.699 0-42.667 8.32-60.032 25.003-17.323 16.64-25.984 36.309-25.984 58.965v428.032h128zM128 790.016v128h86.016v-128h128v-86.016h-128v-128h-86.016v128h-128v86.016h128z" />
<glyph unicode="&#xe904;" glyph-name="revert-icon" horiz-adv-x="745" d="M372.364 820.364v139.636l-185.716-186.182 185.716-186.182v139.636c153.228 0 278.575-125.673 278.575-279.273 0-46.545-13.917-93.091-32.489-130.327l69.632-69.818c32.535 60.509 55.715 125.673 55.715 200.145 0 204.8-167.098 372.364-371.433 372.364zM372.364 168.727c-153.228 0-278.575 125.673-278.575 279.273 0 46.545 13.917 93.091 32.489 130.327l-69.632 69.818c-32.535-60.509-55.715-125.673-55.715-200.145 0-204.8 167.098-372.364 371.433-372.364v-139.636l185.716 186.182-185.716 186.182v-139.636z" />
<glyph unicode="&#xe905;" glyph-name="error" d="M1024 448c0-282.77-229.23-512-512-512s-512 229.23-512 512c0 282.77 229.23 512 512 512s512-229.23 512-512z" />
<glyph unicode="&#xe906;" glyph-name="edit-icon" d="M993.434 337.613c14.797 0 26.778-12.083 26.778-26.982v-239.258c0-0.046 0-0.1 0-0.155 0-74.132-59.95-134.262-134.014-134.553h-752.156c-74.091 0.291-134.042 60.421-134.042 134.553 0 0.054 0 0.109 0 0.163v-0.008 702.259c0 0.031 0 0.067 0 0.103 0 74.132 59.95 134.262 134.014 134.553h238.006c14.848 0 26.829-12.032 26.829-26.931 0-14.848-11.981-26.931-26.829-26.931h-237.978c-44.438-0.203-80.384-36.275-80.384-80.742 0-0.054 0-0.108 0-0.163v0.008-702.208c0-0.031 0-0.067 0-0.103 0-44.467 35.946-80.538 80.365-80.742h752.147c44.461 0.175 80.435 36.257 80.435 80.742 0 0.054 0 0.108 0 0.163v-0.008 239.258c0 14.848 11.981 26.931 26.829 26.931zM419.174 479.437l391.373 393.472 126.259-126.925-391.424-393.472-126.208 126.874zM355.277 288.256l38.656 140.288 100.864-101.427-139.52-38.861zM971.776 939.571l31.437-31.59c26.112-26.368 26.112-68.966 0-95.283l-28.416-28.57-126.31 126.874 28.416 28.57c12.111 12.162 28.869 19.689 47.386 19.689s35.275-7.526 47.383-19.686l0.002-0.002z" />
<glyph unicode="&#xe907;" glyph-name="add_request" d="M638.874 169.344c0-25.472 6.144-49.306 16.307-70.989h-603.981c0 114.432 139.008 210.739 328.397 240.128-77.107 42.573-129.331 124.365-129.331 218.342 0 137.856 112.23 249.6 250.701 249.6 138.496 0 250.726-111.744 250.726-249.6 0-94.029-52.224-175.77-129.331-218.368 35.866-5.555 70.016-13.542 101.709-23.629-50.662-29.184-85.197-83.174-85.197-145.485zM808.346 300.954c73.062 0 132.198-58.854 132.275-131.661 0-72.704-59.213-131.61-132.25-131.61-73.011 0-132.25 58.906-132.25 131.61 0 72.781 59.238 131.661 132.25 131.661zM894.694 145.971v46.797h-62.822v62.618h-46.976v-62.618h-62.874v-46.848h62.874v-62.566h46.976v62.592h62.822z" />
<glyph unicode="&#xe908;" glyph-name="fun-icon" d="M816.426 737.337l-64.955 191.676c-7.2 21.237-30.25 32.611-51.48 25.42-21.234-7.197-32.617-30.246-25.42-51.48l46.781-137.338h-413.832l46.781 138.046c7.197 21.234-4.183 44.283-25.42 51.48-21.247 7.191-44.283-4.183-51.48-25.42l-64.955-191.673c-4.199-12.39-2.169-26.050 5.456-36.683s19.909-16.944 32.994-16.944h157.165v-210.669l-166.265-43.569c-13.352-3.498-24.592-12.497-30.928-24.754-6.336-12.26-7.178-26.635-2.309-39.551l66.137-175.492c7.356-19.519 25.898-31.552 45.595-31.549 5.706 0 11.513 1.010 17.171 3.144 25.177 9.487 37.895 37.589 28.405 62.766l-47.066 124.892 100.031 26.213h110.498l49.346-143.307-51.045-237.589c-5.651-26.304 11.091-52.208 37.398-57.859 3.449-0.744 6.888-1.098 10.279-1.098 22.468 0 42.672 15.638 47.58 38.496l53.896 250.853c1.864 8.678 1.322 17.7-1.565 26.092l-52.123 151.368v280.901h154.882c13.085 0 25.368 6.307 32.994 16.944 7.626 10.633 9.656 24.293 5.456 36.683zM600.159 875.86c0-46.469-37.671-84.14-84.14-84.14s-84.14 37.671-84.14 84.14c0 46.469 37.671 84.14 84.14 84.14s84.14-37.671 84.14-84.14z" />
<glyph unicode="&#xe909;" glyph-name="checkafter" d="M0 960h1024v-1024h-1024v1024zM789.888 653.184l-342.656-342.4-144.96 141.44c-8.736 8.537-20.7 13.805-33.894 13.805-14.226 0-27.021-6.123-35.895-15.877l-0.035-0.039c-8.067-8.853-13.007-20.678-13.007-33.657 0-13.985 5.736-26.63 14.984-35.712l0.008-0.007 179.328-174.912c8.742-8.517 20.7-13.77 33.885-13.77 13.409 0 25.549 5.433 34.339 14.218l376.576 376.256c9.014 9.050 14.587 21.533 14.587 35.318 0 13.201-5.111 25.208-13.462 34.151l0.027-0.029c-8.872 9.532-21.491 15.476-35.497 15.476-13.413 0-25.553-5.451-34.326-14.258l-0.002-0.002z" />
<glyph unicode="&#xe90a;" glyph-name="checkbefore" d="M73.152 9.152h877.696v877.696h-877.696v-877.696zM0 960h1024v-1024h-1024v1024z" />
<glyph unicode="&#xe90b;" glyph-name="circle" d="M512-1.024c-247.063 0-448 202.007-448 449.024 0 247.063 200.937 448 448 448s448-200.937 448-448-200.937-449.024-448-449.024zM512 960c-282.764 0-512-229.236-512-512 0-282.81 229.236-512 512-512 282.81 0 512 229.19 512 512 0 282.764-229.19 512-512 512z" />
<glyph unicode="&#xe90c;" glyph-name="progress_report" horiz-adv-x="1152" d="M293.44 161.28c-10.475-11.271-17.213-26.143-18.167-42.567l-0.009-0.185v-180.288h107.392v284.928c0 13.824-8.128 17.152-18.176 7.36l-71.040-69.184zM765.12 332.16c-10.492-11.308-17.233-26.227-18.168-42.699l-0.008-0.181v-351.040h107.328v455.808c0 13.824-8.128 17.152-18.176 7.36l-71.040-69.312zM922.24 485.504c-10.48-11.269-17.218-26.142-18.168-42.569l-0.008-0.183v-504.512h99.84v601.6c0 13.888-8.128 17.216-18.176 7.36l-63.424-61.696zM611.072 182.016l-10.688-10.432c-5.888-5.76-10.688-21.76-10.688-35.584v-197.76h107.392v302.464c0 13.824-8.192 17.152-18.24 7.296l-67.84-65.984zM450.688 235.2c-10.048 9.792-18.24 6.464-18.24-7.36v-289.6h107.392v185.152c0 13.888-7.68 32.64-17.28 41.856l-17.28 16.768-54.592 53.12zM158.336 29.568l-34.688-33.92c-10.048-9.728-18.176-26.56-18.176-37.568v-19.84h119.872v131.648c0 13.824-8.128 17.152-18.176 7.296l-48.832-47.616zM1133.44 544.448c9.984-9.792 18.112-6.464 18.112 7.36v358.272c0 25.6-25.152 48.064-51.328 48.064h-365.44c-14.208 0-17.664-7.936-7.552-17.728l129.92-126.784-52.992-51.456-245.888-239.872-130.048 126.72c-4.712 4.545-11.133 7.345-18.208 7.345s-13.496-2.8-18.216-7.353l0.008 0.008-361.664-352.704c-18.576-17.949-30.109-43.084-30.109-70.912s11.533-52.963 30.081-70.885l0.028-0.027 2.56-2.496c18.816-18.169 44.469-29.364 72.736-29.364s53.92 11.195 72.767 29.393l-0.031-0.029 231.808 226.112 130.048-126.72c4.715-4.564 11.149-7.376 18.24-7.376s13.525 2.813 18.247 7.383l-0.007-0.007 428.736 417.984 128.128-124.8z" />
<glyph unicode="&#xe90d;" glyph-name="shape_red" d="M742.4 960c-89.088 0-174.592-45.184-230.4-116.608-55.808 71.424-141.312 116.608-230.4 116.608-157.696 0-281.6-135.040-281.6-306.944 0-210.944 174.080-382.784 437.76-643.968l74.24-73.088 74.24 73.664c263.68 260.608 437.76 432.448 437.76 643.392 0 171.904-123.904 306.944-281.6 306.944zM517.12 92.224l-5.12-5.568-5.12 5.568c-243.712 240.576-404.48 399.552-404.48 560.832 0 111.616 76.8 195.328 179.2 195.328 78.848 0 155.648-55.232 182.784-131.712h95.744c26.624 76.48 103.424 131.712 182.272 131.712 102.4 0 179.2-83.712 179.2-195.328 0-161.28-160.768-320.32-404.48-560.832z" />
<glyph unicode="&#xe90e;" glyph-name="squats" d="M823.706 601.027h-219.587v0.737c0 1.147-0.164 2.314-0.307 3.441 15.643 19.834 25.096 45.184 25.108 72.742v0.003c0 65.188-52.531 118.211-117.043 118.211s-117.023-53.043-117.023-118.211c0-27.443 9.441-52.593 25.027-72.684-0.082-0.84-0.225-1.659-0.225-2.54v-1.72h-219.382c-9.073-2.048-15.954-10.179-15.954-20.193 0.020-11.592 9.011-20.951 20.173-20.951h215.142v-217.641h-103.936c-32.051 0-58.143-26.235-58.286-58.573v-145.408c0-32.461 26.153-58.88 58.307-58.88s58.327 26.419 58.327 58.88v86.18h277.934v-86.18c0-32.461 26.194-58.88 58.348-58.88s58.307 26.419 58.307 58.88v145.101c0 32.481-26.153 58.921-58.307 58.921h-106.209v217.6h215.368c11.162 0 20.173 9.38 20.193 20.951 0 0.041 0 0.089 0 0.137 0 9.737-6.755 17.897-15.835 20.048l-0.14 0.028z" />
<glyph unicode="&#xe90f;" glyph-name="yoga" d="M750.060 816.476c-123.617-10.404-214.835-69.263-268.022-154.358-35.635-42.598-106.844-172.728-132.731-240.845-46.94-84.705-87.88-185.487-119.931-276.337-19.579-55.562 68.362-91.812 88.064-36.004 23.962 67.973 52.9 141.455 85.606 209.654 32.461-69.304 65.454-138.383 100.864-206.356 27.443-52.777 110.060-6.492 82.698 46.1-36.454 69.98-70.328 141.087-103.711 212.419 0.43 1.372 0.963 2.724 1.434 4.096 5.53-1.516 11.674-1.987 18.432-0.758l153.211 27.423c21.832 3.891 30.208 26.685 26.767 44.933-10.322 54.682-42.967 92.692-83.62 128.676-6.021 19.579-26.153 36.884-48.476 54.088 45.261 69.816 119.153 107.704 215.347 115.794 49.091 4.096 32.748 75.551-15.933 71.475zM564.019 505.754c12.636-12.534 23.368-25.723 31.498-40.98l-74.138-13.271c13.416 20.332 27.449 38.060 42.845 54.494l-0.206-0.222zM669.737 567.992c-36.311 0-65.761 28.078-65.761 62.73 0 34.632 29.45 62.73 65.741 62.73 36.332 0 65.782-28.099 65.782-62.73 0-34.652-29.45-62.73-65.761-62.73z" />
<glyph unicode="&#xe910;" glyph-name="cross" d="M993.28 929.28c-40.96 40.96-106.496 40.96-143.36 0l-339.968-339.968-335.872 335.872c-40.96 40.96-106.496 40.96-143.36 0-40.96-40.96-40.96-106.496 0-143.36l335.872-335.872-335.872-335.872c-40.96-40.96-40.96-106.496 0-143.36 40.96-40.96 106.496-40.96 143.36 0l335.872 335.872 335.872-335.872c20.48-20.48 45.056-28.672 73.728-28.672s53.248 8.192 73.728 28.672c40.96 40.96 40.96 106.496 0 143.36l-339.968 335.872 335.872 335.872c40.96 40.96 40.96 106.496 4.096 147.456z" />
<glyph unicode="&#xe911;" glyph-name="bootcamp" d="M295.997 744.653h-121.59c-13.271 0-24.003-10.609-24.003-23.736 0-13.107 10.732-23.736 24.003-23.736h121.59c13.271 0 24.003 10.629 24.003 23.757 0 13.107-10.732 23.716-24.003 23.716zM295.997 554.803h-121.59c-13.271 0-24.003-10.629-24.003-23.757 0-13.107 10.732-23.716 24.003-23.716h121.59c13.271 0 24.003 10.609 24.003 23.736 0 13.107-10.732 23.736-24.003 23.736zM248.013 649.728h-121.631c-13.251 0-23.982-10.65-23.982-23.757s10.732-23.736 24.003-23.736h121.59c13.271 0 24.003 10.609 24.003 23.736 0 13.107-10.732 23.736-24.003 23.736zM873.595 531.067h-145.613v94.904c0 41.677-51.548 63.631-81.92 33.546l-192-189.85c-8.684-8.543-14.065-20.422-14.065-33.556s5.381-25.013 14.058-33.55l0.006-0.006 110.060-108.831-134.042-132.547c-8.684-8.543-14.065-20.422-14.065-33.556s5.381-25.013 14.058-33.55l0.006-0.006c8.726-8.594 20.711-13.9 33.935-13.9s25.209 5.307 33.941 13.906l-0.006-0.006 167.997 166.113c8.684 8.543 14.065 20.422 14.065 33.556s-5.381 25.013-14.058 33.55l-0.006 0.006-110.060 108.851 76.124 75.264v-27.812c0-26.214 21.504-47.452 48.005-47.452h193.597c26.522 0 48.005 21.238 48.005 47.452s-21.504 47.473-48.005 47.473zM550.625 772.28c-7.492 4.991-16.701 7.965-26.604 7.965-13.231 0-25.223-5.308-33.962-13.91l0.006 0.006-132.014-130.519c-8.69-8.544-14.075-20.427-14.075-33.567s5.385-25.022 14.069-33.56l0.007-0.006c8.727-8.6 20.716-13.91 33.946-13.91s25.218 5.311 33.951 13.916l-0.006-0.006 104.182 103.014 35.082-24.986 46.899 46.367c7.705 7.473 16.697 13.673 26.603 18.228l0.594 0.245-88.678 60.723zM420.127 369.009c-11.539 11.499-20.1 25.979-24.427 42.189l-0.149 0.655-253.46-250.675c-8.684-8.543-14.065-20.422-14.065-33.556s5.381-25.013 14.058-33.55l0.006-0.006c8.726-8.594 20.711-13.9 33.935-13.9s25.209 5.307 33.941 13.906l-0.006-0.006 244.122 241.398-33.935 33.546zM824.013 744.653c0-39.316-32.239-71.188-72.008-71.188s-72.008 31.872-72.008 71.188c0 39.316 32.239 71.188 72.008 71.188s72.008-31.872 72.008-71.188z" />
<glyph unicode="&#xe912;" glyph-name="crossfit" d="M102.4 520.008h121.61v-143.995h-121.61zM800.010 520.008h121.61v-143.995h-121.61zM320 554.168c-13.517-13.169-30.167-22.426-48.005-28.078v-156.18c17.838-5.652 34.509-14.909 48.005-28.058v-61.85h48.005v335.995h-48.005v-61.85zM704 615.997h-48.005v-335.995h48.005v61.85c13.517 13.148 30.167 22.405 48.005 28.058v156.18c-17.838 5.652-34.509 14.909-48.005 28.058v61.85zM560.005 809.595c-0.023 26.503-21.502 47.982-48.003 48.005h-0.002c-26.503-0.023-47.982-21.502-48.005-48.003v-289.589h-47.985v-144.015h47.985v-289.587c0.023-26.503 21.502-47.982 48.003-48.005h0.002c26.503 0.023 47.982 21.502 48.005 48.003v289.589h47.985v144.015h-47.985v289.587z" />
<glyph unicode="&#xe913;" glyph-name="gym" d="M867.758 590.152l-60.969 60.969 45.834 45.814c3.914 3.904 6.335 9.303 6.335 15.268s-2.421 11.363-6.335 15.267v0l-61.358 61.379c-8.090 8.090-22.446 8.090-30.536 0l-45.814-45.834-60.989 60.969c-7.733 7.355-18.217 11.88-29.759 11.88-23.866 0-43.213-19.347-43.213-43.213 0-11.541 4.525-22.026 11.897-29.777l-0.017 0.018 213.832-213.811c7.711-7.254 18.125-11.711 29.58-11.711 23.866 0 43.213 19.347 43.213 43.213 0 11.45-4.453 21.86-11.722 29.592l0.021-0.023zM431.165 153.108l-213.832 213.811c-7.711 7.254-18.125 11.711-29.58 11.711-23.866 0-43.213-19.347-43.213-43.213 0-11.45 4.453-21.86 11.722-29.592l-0.021 0.023 60.969-60.989-45.732-45.711c-3.915-3.908-6.337-9.31-6.337-15.278s2.422-11.37 6.337-15.278v0l61.358-61.338c3.898-3.929 9.299-6.361 15.268-6.361s11.37 2.432 15.266 6.359l45.733 45.733 60.969-60.969c7.733-7.355 18.217-11.88 29.759-11.88 23.866 0 43.213 19.347 43.213 43.213 0 11.541-4.525 22.026-11.897 29.777l0.017-0.018zM531.743 559.616l-131.133-131.584 91.648-91.648 131.133 131.584zM806.666 467.968l-274.924 274.944c-7.733 7.355-18.217 11.88-29.759 11.88-23.866 0-43.213-19.347-43.213-43.213 0-11.541 4.525-22.026 11.897-29.777l-0.017 0.018 274.924-274.924c7.733-7.355 18.217-11.88 29.759-11.88 23.866 0 43.213 19.347 43.213 43.213 0 11.541-4.525 22.026-11.897 29.777l0.017-0.018zM553.349 214.2l-274.924 274.924c-7.889 8.295-19.009 13.454-31.333 13.454-23.866 0-43.213-19.347-43.213-43.213 0-12.324 5.159-23.444 13.436-31.316l0.018-0.017 274.924-274.924c7.733-7.355 18.217-11.88 29.759-11.88 23.866 0 43.213 19.347 43.213 43.213 0 11.541-4.525 22.026-11.897 29.777l0.017-0.018z" />
<glyph unicode="&#xe914;" glyph-name="fitness" d="M815.841 381.768h-64.799v134.636c73.073 10.609 129.597 73.073 129.597 149.033 0 83.354-67.83 151.204-151.204 151.204-83.354 0-151.204-67.83-151.204-151.204 0-75.981 56.525-138.424 129.597-149.012v-134.656h-215.962v134.472c30.882 4.415 58.086 17.63 79.665 36.988l-0.141-0.124c-9.775 13.687-18.102 29.393-24.22 46.162l-0.438 1.372h-76.472c-35.769 0.047-64.752 29.030-64.799 64.794v0.004c0.047 35.769 29.030 64.752 64.794 64.799h76.476c6.144 16.998 14.336 33.055 24.658 47.555-26.621 24.101-62.1 38.851-101.024 38.851-0.052 0-0.103 0-0.155 0h0.008c-83.354 0-151.204-67.83-151.204-151.204 0-75.981 56.525-138.424 129.597-149.012v-134.656h-240.456c-35.769-0.047-64.752-29.030-64.799-64.794v-64.823h86.405v-129.597h-43.213v-43.192h129.618v43.213h-43.213v43.192h218.89v-43.213h-43.213v-43.192h129.597v43.213h-43.192v43.192h172.81v-43.213h-43.213v-43.192h129.597v43.213h-43.213v129.597h129.618v64.799c-0.047 35.769-29.030 64.752-64.794 64.799h-0.004zM664.637 665.436c0.047 35.769 29.030 64.752 64.794 64.799h0.004c35.769-0.047 64.752-29.030 64.799-64.794v-0.004c-0.047-35.769-29.030-64.752-64.794-64.799h-0.004c-35.769 0.047-64.752 29.030-64.799 64.794v0.004zM272.957 208.957v43.213h218.89v-43.213h-218.89zM707.85 208.957h-172.81v43.213h172.81v-43.213zM751.043 665.436c-0.518 11.532-9.993 20.686-21.606 20.686s-21.089-9.154-21.605-20.639l-0.002-0.047c0.518-11.532 9.993-20.686 21.606-20.686s21.089 9.154 21.605 20.639l0.002 0.047zM470.221 687.043c-11.532-0.518-20.686-9.993-20.686-21.606s9.154-21.089 20.639-21.605l0.047-0.002h66.56c-0.819 7.148-1.741 14.254-1.741 21.606 0 7.373 0.922 14.459 1.741 21.606h-66.56z" />
<glyph unicode="&#xe915;" glyph-name="down" horiz-adv-x="1664" d="M1452.288 928.896c22.309 19.357 51.633 31.153 83.712 31.153 70.719 0 128.049-57.329 128.049-128.049 0-38.64-17.115-73.283-44.178-96.761l-0.159-0.135-755.328-652.672c-22.298-19.34-51.604-31.126-83.663-31.126-35.364 0-67.378 14.341-90.545 37.525l-652.801 652.673c-23.138 23.17-37.447 55.162-37.447 90.496 0 70.732 57.339 128.071 128.071 128.071 35.398 0 67.441-14.361 90.623-37.574l568.577-568.449 665.216 574.72z" />
<glyph unicode="&#xe916;" glyph-name="new-request" horiz-adv-x="981" d="M883.2 166.4c-3.072 2.048-7.168 5.12-12.245 8.192-39.488-21.285-86.42-33.793-136.274-33.793-0.241 0-0.482 0-0.723 0.001h0.037c-0.038 0-0.083 0-0.129 0-164.242 0-297.387 133.145-297.387 297.387 0 0.21 0 0.42 0.001 0.63v-0.033c0 0.068 0 0.148 0 0.228 0 147.671 107.633 270.203 248.728 293.425l1.725 0.234c0 6.144-1.024 12.288-2.048 18.432 0 0 3.072 194.56-220.8 205.824-223.872-11.264-220.8-205.824-220.8-205.824-1.666-14.955-2.617-32.293-2.617-49.854 0-72.968 16.413-142.103 45.749-203.914l-1.233 2.888c18.432-38.912 34.773-60.416 34.773-60.416 10.24-17.408 16.341-31.744 20.48-43.008 5.077-17.408 4.053-26.624 4.053-26.624-2.048-50.176-263.723-178.176-298.496-204.8-33.707-26.624-36.779-63.488-36.779-63.488v-164.864h910.763v164.864c0 2.048-3.029 37.888-36.779 64.512zM501.931 504.32c-5.12-20.48-8.192-41.984-8.192-64.512 0-15.36 1.024-29.696 4.096-45.056 21.601-114.308 120.683-199.602 239.687-199.602 27.239 0 53.434 4.469 77.893 12.713l-1.718-0.503c97.618 33.127 166.614 123.95 166.614 230.888 0 0.189 0 0.377-0.001 0.566v-0.029c0 0.089 0 0.194 0 0.299 0 134.389-108.907 243.34-243.278 243.413h-0.007c-17.365 0-33.707-2.048-49.067-5.12-90.606-17.68-161.949-84.693-185.637-171.382l-0.39-1.674zM600.064 425.472v41.984h108.331v108.544h56.235v-108.544h108.331v-56.32h-108.331v-108.544h-56.235v109.568h-108.331v13.312z" />
<glyph unicode="&#xe917;" glyph-name="location" horiz-adv-x="717" d="M359.731 960c-200.141 0-359.731-158.976-359.731-358.4 0-169.779 248.832-522.752 359.731-665.6 108.237 142.848 357.069 495.821 357.069 665.6v-0.097c0.003 0.629 0.005 1.259 0.005 1.889 0 196.949-159.659 356.608-356.608 356.608-0.164 0-0.327 0-0.465 0zM359.731 782.131c97.382 0 178.534-80.845 178.534-180.531 0-97.024-81.152-177.869-178.534-177.869-100.045 0-181.248 80.896-181.248 177.869 0.204 99.748 81.113 180.532 180.889 180.532 0.126 0 0.252 0 0.378 0h-0.019z" />
<glyph unicode="&#xe918;" glyph-name="send-icon" horiz-adv-x="1195" d="M0-64l1194.667 512-1194.667 512v-398.208l853.333-113.792-853.333-113.792z" />
<glyph unicode="&#xe919;" glyph-name="filter" horiz-adv-x="1161" d="M399.36 402.739l-360.789 426.667c-9.464 11.162-15.219 25.73-15.219 41.643 0 35.641 28.872 64.539 64.504 64.58h940.173c0.013 0 0.028 0 0.043 0 35.667 0 64.58-28.914 64.58-64.58 0-15.975-5.8-30.595-15.41-41.87l0.075 0.090-360.789-426.667v-377.719c0-0.017 0-0.037 0-0.057 0-35.667-28.914-64.58-64.58-64.58-10.526 0-20.464 2.518-29.244 6.985l0.367-0.169-188.006 94.071c-21.334 10.837-35.699 32.617-35.703 57.753v283.854zM1044.412 878.694c-2.932 6.218-9.148 10.445-16.352 10.445-0.011 0-0.023 0-0.034 0h-940.167c-0.018 0-0.038 0-0.059 0-9.953 0-18.022-8.069-18.022-18.022 0-4.465 1.624-8.55 4.312-11.699l-0.021 0.025 371.849-439.637v-300.851c0-6.827 3.823-13.107 9.967-16.179l188.006-94.003c2.365-1.22 5.161-1.935 8.124-1.935 9.953 0 18.022 8.069 18.022 18.022 0 0.032 0 0.064 0 0.097v-0.005 394.786l5.461 6.554 366.319 433.152c2.658 3.12 4.274 7.198 4.274 11.653 0 2.758-0.619 5.371-1.727 7.708l0.047-0.109z" />
<glyph unicode="&#xe91a;" glyph-name="flag_bg" horiz-adv-x="1109" d="M0 960h1109.333v-469.333c0-306.347-248.32-554.667-554.667-554.667s-554.667 248.32-554.667 554.667v469.333z" />
<glyph unicode="&#xe91b;" glyph-name="search-icon" d="M996.206 84.48l-221.842 221.842c-1.17 1.17-2.56 1.975-3.803 3.072 43.311 64.986 69.113 144.866 69.113 230.773 0 231.871-187.969 419.84-419.84 419.84s-419.84-187.969-419.84-419.84c0-231.871 187.969-419.84 419.84-419.84 85.906 0 165.787 25.801 232.314 70.078l-1.541-0.965c1.024-1.243 1.902-2.633 3.072-3.803l221.842-221.842c15.304-14.673 36.115-23.707 59.035-23.707 47.142 0 85.358 38.216 85.358 85.358 0 22.921-9.034 43.731-23.736 59.065l0.029-0.030zM419.84 265.874c-151.484 0-274.286 122.802-274.286 274.286s122.802 274.286 274.286 274.286v0c151.484 0 274.286-122.802 274.286-274.286s-122.802-274.286-274.286-274.286v0z" />
<glyph unicode="&#xe91c;" glyph-name="calendar" horiz-adv-x="1084" d="M491.279 127.428h100.533c0.125-0.001 0.274-0.002 0.422-0.002 22.792 0 41.28 18.426 41.381 41.193v61.209c0 22.287-18.071 41.201-41.803 41.201h-100.533c-0.125 0.001-0.274 0.002-0.422 0.002-22.792 0-41.28-18.426-41.381-41.193v-61.209c0.536-22.747 19.005-41.005 41.785-41.201h0.019zM232.629 127.428h100.593c0.108-0.001 0.235-0.002 0.362-0.002 22.791 0 41.28 18.425 41.381 41.193v61.209c0 22.287-18.071 41.201-41.803 41.201h-100.472c-0.125 0.001-0.274 0.002-0.422 0.002-22.792 0-41.28-18.426-41.381-41.193v-61.209c0-23.371 18.071-41.201 41.743-41.201zM751.074 127.428h100.472c0.125-0.001 0.274-0.002 0.422-0.002 22.792 0 41.28 18.426 41.381 41.193v61.209c0 22.287-18.071 41.201-41.803 41.201h-100.412c-0.125 0.001-0.274 0.002-0.422 0.002-22.792 0-41.28-18.426-41.381-41.193v-61.209c0-23.371 19.215-41.201 41.803-41.201zM491.279 350.057h100.533c0.125-0.001 0.274-0.002 0.422-0.002 22.792 0 41.28 18.426 41.381 41.193v61.209c0 22.287-18.071 41.201-41.803 41.201h-100.533c-0.125 0.001-0.274 0.002-0.422 0.002-22.792 0-41.28-18.426-41.381-41.193v-61.209c1.205-22.287 19.275-41.201 41.803-41.201zM232.629 350.057h100.593c0.108-0.001 0.235-0.002 0.362-0.002 22.791 0 41.28 18.425 41.381 41.193v61.209c0 22.287-18.071 41.201-41.803 41.201h-100.472c-0.125 0.001-0.274 0.002-0.422 0.002-22.792 0-41.28-18.426-41.381-41.193v-61.209c0-22.287 18.071-41.201 41.743-41.201zM751.074 350.057h100.472c0.125-0.001 0.274-0.002 0.422-0.002 22.792 0 41.28 18.426 41.381 41.193v61.209c0 22.287-18.071 41.201-41.803 41.201h-100.412c-0.125 0.001-0.274 0.002-0.422 0.002-22.792 0-41.28-18.426-41.381-41.193v-61.209c0.536-22.747 19.005-41.005 41.785-41.201h0.019zM944.188 859.829h-70.054v-44.574c0-49.995-41.743-91.196-92.582-91.196s-92.582 41.141-92.582 91.256v44.514h-293.768v-44.574c0-49.995-41.743-91.196-92.582-91.196s-92.642 41.141-92.642 91.256v44.514h-69.933c-74.571 0-134.385-59.031-134.385-132.457v-651.144c0-72.282 59.814-132.457 134.385-132.457h804.141c73.427 0 134.385 59.031 134.385 132.518v651.023c0 73.487-59.814 132.457-134.385 132.457zM975.812 77.372c0-0.001 0-0.001 0-0.002 0-16.634-13.484-30.118-30.118-30.118-0.127 0-0.254 0.001-0.381 0.002h-805.267c-0.107-0.001-0.234-0.002-0.361-0.002-16.634 0-30.118 13.484-30.118 30.118 0 0.001 0 0.002 0 0.002v0 496.399h866.244v-496.399zM302.682 764.115c28.25 0 51.923 22.287 51.923 51.2v84.57c-0.136 28.307-23.114 51.202-51.44 51.202-0.17 0-0.339-0.001-0.508-0.002h0.026c-0.161 0.002-0.352 0.003-0.543 0.003-28.326 0-51.305-22.895-51.44-51.19v-84.583c0-28.913 22.588-51.2 51.983-51.2zM781.553 764.115c28.25 0 51.983 22.287 51.983 51.2v84.57c-0.135 28.307-23.114 51.203-51.44 51.203-0.191 0-0.381-0.001-0.572-0.003h0.029c-0.143 0.001-0.313 0.002-0.482 0.002-28.326 0-51.305-22.895-51.44-51.189v-84.583c1.084-28.913 23.672-51.2 51.923-51.2z" />
<glyph unicode="&#xe91d;" glyph-name="chat-icon-orange" horiz-adv-x="1152" d="M1043.264 652.352c8.128-23.68 12.416-48.256 12.416-73.536 0-171.776-197.184-312.512-447.872-325.952-42.105-39.284-89.719-73.528-141.348-101.267l-3.612-1.773c47.388-14.78 102.263-24.698 158.983-27.643l1.657-0.069c75.584-70.656 195.328-148.16 376.192-183.168 0 0-110.4 64.256-93.888 225.664 145.92 56.512 244.224 162.304 244.224 283.52 0 77.248-40 148.288-106.752 204.224zM489.152 957.184c-269.12 0-487.232-146.432-487.232-327.040 0-6.784 0.256-13.632 0.896-20.288 10.24-112.704 105.6-209.984 243.392-263.296 16.512-161.408-93.952-225.664-93.952-225.664 180.864 35.072 300.608 112.512 376.192 183.296 250.624 13.44 447.872 154.24 447.872 325.952-0.064 180.608-218.24 327.040-487.296 327.040zM700.352 507.584h-449.728c-20.736 0-37.568 15.424-37.568 34.56 0 19.072 16.832 34.56 37.568 34.56h449.728c20.672 0 37.44-15.488 37.44-34.56 0-19.2-16.768-34.56-37.44-34.56zM700.352 672.704h-449.728c-20.736 0-37.568 15.488-37.568 34.56 0 19.008 16.832 34.432 37.568 34.432h449.728c20.672 0 37.44-15.424 37.44-34.496 0-19.008-16.768-34.496-37.44-34.496z" />
<glyph unicode="&#xe91e;" glyph-name="back" d="M807.398 500.992l1.024-0.23h-445.389l140.032 142.49c6.835 6.963 10.598 16.384 10.598 26.266s-3.763 19.251-10.624 26.214l-21.76 22.144c-6.514 6.668-15.597 10.803-25.645 10.803-0.029 0-0.058 0-0.087 0h0.005c-0.032 0-0.070 0-0.108 0-10.036 0-19.108-4.125-25.614-10.771l-0.006-0.006-240-243.686c-6.569-6.661-10.625-15.814-10.625-25.914 0-0.096 0-0.193 0.001-0.289v0.015c-0.026-9.933 3.738-19.251 10.624-26.214l240-243.712c6.51-6.638 15.572-10.752 25.595-10.752 0.047 0 0.093 0 0.14 0h-0.007c9.728 0 18.867 3.814 25.702 10.752l21.786 22.144c6.861 6.912 10.624 16.205 10.624 26.112 0 9.882-3.763 18.662-10.624 25.6l-141.568 143.283h446.413c20.070 0 36.915 17.562 36.915 37.914v31.309c0 20.352-17.357 36.531-37.402 36.531z" />
<glyph unicode="&#xe91f;" glyph-name="add_time" d="M694.4 441.6c-97.155-0.117-175.884-78.845-176-175.989v-0.011c0.117-97.155 78.845-175.884 175.989-176h0.011c97.155 0.117 175.884 78.845 176 175.989v0.011c-0.117 97.155-78.845 175.884-175.989 176h-0.011zM758.4 249.6h-48v-48c0-8.837-7.163-16-16-16s-16 7.163-16 16v0 48h-48c-8.837 0-16 7.163-16 16s7.163 16 16 16v0h48v48c0 8.837 7.163 16 16 16s16-7.163 16-16v0-48h48c8.837 0 16-7.163 16-16s-7.163-16-16-16v0zM462.208 443.187c-2.56-0.666-5.043-1.587-7.808-1.587-17.664 0-32 14.336-32 32 0 11.699 6.605 21.504 16 27.085v148.915c0 8.837 7.163 16 16 16s16-7.163 16-16v0-148.915c9.395-5.581 16-15.386 16-27.085 0-2.765-0.922-5.222-1.587-7.782l46.848-46.848c6.093-6.093 15.872-6.272 22.144-0.435 36.808 34.116 86.255 55.051 140.592 55.066h0.003c8.755 0 17.997-0.717 29.082-2.304 0.643-0.091 1.386-0.143 2.142-0.143 8.865 0 16.051 7.186 16.051 16.051 0 0.258-0.006 0.514-0.018 0.768l0.001-0.036c-7.579 152.714-133.243 273.664-287.155 273.664-0.036 0-0.072 0-0.108 0h0.006c-158.822 0-288-129.203-288-288 0-71.373 26.24-136.653 69.427-187.008l45.568-42.829c44.877-28.928 115.712-58.163 173.005-58.163 8.96 0 17.818 0.512 26.573 1.331 8.177 0.782 14.52 7.616 14.52 15.931 0 1.603-0.236 3.151-0.674 4.611l0.029-0.113c-5.322 17.429-8.406 37.466-8.448 58.218v0.022c0 37.376 10.24 74.24 29.645 106.598 1.429 2.348 2.275 5.187 2.275 8.224 0 4.416-1.789 8.414-4.682 11.309l-51.456 51.456z" />
<glyph unicode="&#xe920;" glyph-name="tick" d="M924.544 732.288c-7.649 7.84-18.318 12.702-30.123 12.702s-22.474-4.862-30.114-12.693l-0.008-0.009-510.165-519.296-196.096 199.595c-7.649 7.84-18.318 12.702-30.123 12.702s-22.474-4.862-30.114-12.693l-0.008-0.009c-16.64-16.939-16.64-44.373 0-61.269l226.219-230.272c7.649-7.84 18.318-12.702 30.123-12.702s22.474 4.862 30.114 12.693l0.008 0.009 540.288 549.973c16.64 16.896 16.64 44.373 0 61.269z" />
<glyph unicode="&#xe921;" glyph-name="chat-icon" horiz-adv-x="1152" d="M1043.264 652.352c8.128-23.68 12.416-48.256 12.416-73.536 0-171.776-197.184-312.512-447.872-325.952-42.105-39.284-89.719-73.528-141.348-101.267l-3.612-1.773c47.388-14.78 102.263-24.698 158.983-27.643l1.657-0.069c75.584-70.656 195.328-148.16 376.192-183.168 0 0-110.4 64.256-93.888 225.664 145.92 56.512 244.224 162.304 244.224 283.52 0 77.248-40 148.288-106.752 204.224zM489.152 957.184c-269.12 0-487.232-146.432-487.232-327.040 0-6.784 0.256-13.632 0.896-20.288 10.24-112.704 105.6-209.984 243.392-263.296 16.512-161.408-93.952-225.664-93.952-225.664 180.864 35.072 300.608 112.512 376.192 183.296 250.624 13.44 447.872 154.24 447.872 325.952-0.064 180.608-218.24 327.040-487.296 327.040zM700.352 507.584h-449.728c-20.736 0-37.568 15.424-37.568 34.56 0 19.072 16.832 34.56 37.568 34.56h449.728c20.672 0 37.44-15.488 37.44-34.56 0-19.2-16.768-34.56-37.44-34.56zM700.352 672.704h-449.728c-20.736 0-37.568 15.488-37.568 34.56 0 19.008 16.832 34.432 37.568 34.432h449.728c20.672 0 37.44-15.424 37.44-34.496 0-19.008-16.768-34.496-37.44-34.496z" />
<glyph unicode="&#xe922;" glyph-name="mobilemenu" horiz-adv-x="1463" d="M691.566 807.131c-35.079 2.078-62.74 31.034-62.74 66.45s27.661 64.372 62.557 66.442l0.182 0.009h638.318c35.393-1.712 63.44-30.824 63.44-66.487s-28.048-64.775-63.288-66.481l-0.153-0.006h-638.318zM691.566 381.44c-36.76 0-66.56 29.8-66.56 66.56s29.8 66.56 66.56 66.56h638.318c36.76 0 66.56-29.8 66.56-66.56s-29.8-66.56-66.56-66.56h-638.318zM691.566-44.032c-0.931-0.047-2.022-0.073-3.12-0.073-36.76 0-66.56 29.8-66.56 66.56s29.8 66.56 66.56 66.56c1.097 0 2.188-0.027 3.272-0.079l-0.153 0.006h638.318c35.393-1.712 63.44-30.824 63.44-66.487s-28.048-64.775-63.288-66.481l-0.153-0.006h-638.318zM106.423 807.058c-35.393 1.712-63.44 30.824-63.44 66.487s28.048 64.775 63.288 66.481l0.153 0.006h279.259c0.931 0.047 2.022 0.073 3.12 0.073 36.76 0 66.56-29.8 66.56-66.56s-29.8-66.56-66.56-66.56c-1.097 0-2.188 0.027-3.272 0.079l0.153-0.006h-279.259zM106.423 381.513c-35.393 1.712-63.44 30.824-63.44 66.487s28.048 64.775 63.288 66.481l0.153 0.006h279.259c0.931 0.047 2.022 0.073 3.12 0.073 36.76 0 66.56-29.8 66.56-66.56s-29.8-66.56-66.56-66.56c-1.097 0-2.188 0.027-3.272 0.079l0.153-0.006h-279.259zM106.423-44.032c-0.931-0.047-2.022-0.073-3.12-0.073-36.76 0-66.56 29.8-66.56 66.56s29.8 66.56 66.56 66.56c1.097 0 2.188-0.027 3.272-0.079l-0.153 0.006h279.259c35.393-1.712 63.44-30.824 63.44-66.487s-28.048-64.775-63.288-66.481l-0.153-0.006h-279.259z" />
<glyph unicode="&#xe923;" glyph-name="notification" horiz-adv-x="986" d="M723.058 125.63c-0.91-134.94-61.137-189.63-201.88-189.63h-60.909c-137.975 0-177.873 50.29-178.479 189.63h-168.012c-62.838 0-113.778 50.94-113.778 113.778s50.94 113.778 113.778 113.778v0h37.926v250.046c0 197.101 142.981 356.769 325.442 356.769h20.783c184.055 0 336.441-161.564 336.441-356.769v-250.046h37.926c62.838 0 113.778-50.94 113.778-113.778s-50.94-113.778-113.778-113.778v0h-149.239zM357.641 125.63c0.228-100.617 11.302-113.778 102.628-113.778h60.909c100.087 0 125.459 22.452 126.028 113.778h-289.564zM758.519 353.185v250.046c0 154.245-119.467 280.917-260.589 280.917h-20.783c-138.581 0-249.591-124.018-249.591-280.917v-250.046h530.963zM720.593 580.741c0-10.473-8.49-18.963-18.963-18.963s-18.963 8.49-18.963 18.963v0c0 91.060-54.993 173.587-140.212 210.11-6.824 2.977-11.507 9.664-11.507 17.446 0 10.482 8.497 18.978 18.978 18.978 2.7 0 5.268-0.564 7.594-1.58l-0.122 0.048c99.1-42.515 163.195-138.695 163.195-245.001zM113.778 277.333c-20.946 0-37.926-16.98-37.926-37.926s16.98-37.926 37.926-37.926v0h758.519c20.946 0 37.926 16.98 37.926 37.926s-16.98 37.926-37.926 37.926v0h-758.519z" />
<glyph unicode="&#xe924;" glyph-name="plus" d="M383.659 63.915v252.672h-252.245c-0.997-0.027-2.171-0.043-3.348-0.043-72.578 0-131.413 58.836-131.413 131.413s58.836 131.413 131.413 131.413c1.177 0 2.351-0.015 3.521-0.046l-0.173 0.004h252.245v252.843c1.844 69.21 58.388 124.611 127.872 124.611s126.028-55.401 127.868-124.441l0.004-0.17v-252.757h253.184c0.997 0.027 2.171 0.043 3.348 0.043 72.578 0 131.413-58.836 131.413-131.413s-58.836-131.413-131.413-131.413c-1.177 0-2.351 0.015-3.521 0.046l0.173-0.004h-253.184v-252.757c0.027-0.984 0.043-2.142 0.043-3.304 0-70.645-57.269-127.915-127.915-127.915s-127.915 57.269-127.915 127.915c0 1.162 0.015 2.32 0.046 3.474l-0.004-0.17z" />
<glyph unicode="&#xe925;" glyph-name="about" d="M511.488 475.989c75.691 0 136.533 60.416 136.533 134.699 0.043 74.496-60.843 134.741-136.533 134.741-75.093 0-136.107-60.245-136.107-134.741 0-74.368 61.013-134.699 136.107-134.699zM620.971 454.016h-218.581c-39.083 0-71.125-35.413-71.125-78.805v-216.917c0-2.389 1.28-4.523 1.365-6.997h357.973c0.256 2.475 1.28 4.608 1.28 6.997v216.917c0.085 43.392-31.915 78.805-70.912 78.805zM878.635 411.691c60.715 0 109.397 48.256 109.397 107.947 0 59.648-48.64 107.989-109.397 107.989-60.288 0-109.099-48.341-109.099-107.989-0.128-59.648 48.811-107.947 109.099-107.947zM966.4 394.069h-175.147c-31.445 0-57.173-28.373-57.173-63.317v-173.781c0-1.877 0.939-3.627 1.067-5.675h287.147c0.085 2.048 0.981 3.84 0.981 5.675v173.781c0.128 34.944-25.515 63.317-56.875 63.317zM144.555 411.691c60.672 0 109.397 48.256 109.397 107.947 0 59.648-48.725 107.989-109.397 107.989-60.331 0-109.099-48.341-109.099-107.947 0-59.691 48.768-107.947 109.099-107.947zM232.32 394.069h-175.36c-31.36 0-56.96-28.416-56.96-63.317v-173.781c0-1.877 0.939-3.627 1.109-5.675h287.104c0.128 2.048 0.939 3.84 0.939 5.675v173.781c0.085 34.944-25.557 63.317-56.832 63.317z" />
<glyph unicode="&#xe926;" glyph-name="contact" d="M917.333 200.107l-131.413 131.84c-26.197 26.155-69.547 25.387-96.64-1.792l-66.219-66.432-13.056 7.296c-41.813 23.253-99.072 55.083-159.275 115.541-60.416 60.587-92.203 118.059-115.456 160-2.432 4.48-4.779 8.747-7.125 12.8l66.304 66.475c27.136 27.221 27.861 70.656 1.749 96.896l-131.413 131.84c-26.112 26.197-69.504 25.387-96.64-1.835l-37.035-37.333 1.024-1.024c-12.149-15.54-22.436-33.373-30.041-52.562l-0.508-1.454c-6.36-15.912-11.13-34.413-13.462-53.665l-0.106-1.076c-17.365-144.299 48.384-276.181 226.816-455.125 246.613-247.339 445.44-228.651 453.973-227.712 20.348 2.475 38.858 7.319 56.275 14.31l-1.491-0.528c20.498 8.095 38.203 18.351 54.096 30.814l-0.464-0.35 0.853-0.725 37.504 36.864c27.051 27.221 27.861 70.699 1.707 96.981z" />
<glyph unicode="&#xe927;" glyph-name="hand" d="M641.303 495.476c-0.167 0-0.366 0-0.564 0-115.382 0-217.261-57.812-278.251-146.050l-0.737-1.127v194.839c0 26.345 21.69 47.756 48.314 47.756 58.368 0 105.844 46.918 105.844 104.541v47.756h-182.924c-0.083-0.001-0.181-0.001-0.28-0.001-15.719 0-28.474 12.69-28.578 28.384v30.544c0 15.732 13.033 28.393 28.858 28.393s28.858-12.66 28.858-28.393v-2.048h154.065v47.756c0 57.716-47.476 104.634-105.844 104.634h-154.159c-27.276 0-54.551-10.24-76.707-28.858-22.249-18.618-36.957-43.473-41.425-70.097l-128.745-763.718c-4.748-27.927 2.607-55.761 20.108-76.148 17.501-20.48 43.939-32.116 72.611-32.116h770.793c58.275 0 105.844 46.918 105.844 104.634v76.055c0 183.668-151.273 333.079-337.082 333.079z" />
<glyph unicode="&#xe928;" glyph-name="explore" horiz-adv-x="2164" d="M1093.818 613.236c-13.964 0-25.6-11.636-25.6-25.6s11.636-25.6 25.6-25.6c13.964 0 25.6 11.636 25.6 25.6s-11.636 25.6-25.6 25.6zM1093.818 820.364c-128 0-232.727-104.727-232.727-232.727s104.727-232.727 232.727-232.727 232.727 104.727 232.727 232.727-104.727 232.727-232.727 232.727zM1145.018 536.436l-190.836-88.436 88.436 190.836 190.836 88.436-88.436-190.836z" />
<glyph unicode="&#xe929;" glyph-name="home" horiz-adv-x="2164" d="M1297.455 604.625c3.604 3.836 5.818 9.014 5.818 14.71 0 6.587-2.961 12.482-7.625 16.426l-0.032 0.026-208.012 178.618c-4.499 3.71-10.323 5.96-16.672 5.96-6.565 0-12.569-2.406-17.177-6.384l0.034 0.028-208.756-187.741c-4.448-3.934-7.239-9.655-7.239-16.028 0-5.89 2.383-11.223 6.238-15.088v0l5.236-5.353c8.681-8.867 22.714-9.937 31.325-2.351l15.593 13.708v-200.704c0-12.311 10.17-22.272 22.714-22.272h81.361c0.063-0.001 0.136-0.001 0.21-0.001 12.343 0 22.363 9.947 22.48 22.262v140.415h103.796v-140.404c-0.186-12.288 8.774-22.272 21.318-22.272h86.225c0.062-0.001 0.136-0.001 0.21-0.001 12.351 0 22.376 9.96 22.481 22.286v197.851l9.635-8.285c5.306-4.585 16.454-0.908 24.902 8.215l5.888 6.377z" />
<glyph unicode="&#xe92a;" glyph-name="right" horiz-adv-x="597" d="M575.829 397.312l-450.56-440.32c-13.406-12.994-31.709-21.004-51.883-21.004s-38.477 8.010-51.902 21.022l0.019-0.019c-13.274 12.848-21.513 30.827-21.513 50.731s8.24 37.883 21.494 50.712l0.019 0.018 398.677 389.547-398.677 389.547c-13.274 12.848-21.513 30.827-21.513 50.731s8.24 37.883 21.494 50.712l0.019 0.018c13.406 12.994 31.709 21.004 51.883 21.004s38.477-8.010 51.902-21.022l-0.019 0.019 450.56-440.32c13.226-12.854 21.432-30.813 21.432-50.688s-8.206-37.834-21.415-50.672l-0.017-0.016z" />
<glyph unicode="&#xe92b;" glyph-name="invite" d="M782.208 606.123v-95.701l60.245 45.141zM527.829 818.603c-9.858 8.336-22.714 13.404-36.753 13.404-13.946 0-26.723-5-36.638-13.306l0.089 0.073-24.32-20.821h122.325l-24.704 20.651zM548.309 286.976c-16.427-12.373-36.352-19.115-56.832-18.901-20.48 0-40.533 6.528-57.045 18.901l-304.853 229.419v-393.429c-0.002-0.179-0.003-0.39-0.003-0.601 0-31.526 25.364-57.127 56.799-57.51h609.572c31.489 0.36 56.878 25.971 56.878 57.511 0 0.211-0.001 0.422-0.003 0.633v-0.032 393.429l-304.512-229.419zM140.117 555.563l58.368-43.776v92.587zM236.757 759.339v-276.309l220.075-165.205c20.48-15.019 48.64-15.019 69.12 0l217.941 163.84v277.675h-507.093zM372.651 605.013h103.339c10.651 0 19.285-8.634 19.285-19.285s-8.634-19.285-19.285-19.285h-103.339c-10.651 0-19.285 8.634-19.285 19.285s8.634 19.285 19.285 19.285v0zM609.963 469.931h-237.312c-10.663 0-19.307 8.644-19.307 19.307s8.644 19.307 19.307 19.307h237.312c10.663 0 19.307-8.644 19.307-19.307s-8.644-19.307-19.307-19.307v0z" />
<glyph unicode="&#xe92c;" glyph-name="logout" d="M612.267 161.664h-394.24v573.141h394.325c8.747 0 15.829 7.253 15.829 16.171v59.52c0.001 0.051 0.001 0.112 0.001 0.172 0 8.762-7.043 15.879-15.776 15.998h-468.576c-8.763-0.096-15.83-7.222-15.83-15.999 0-0.060 0-0.121 0.001-0.181v0.009-724.523c0-8.96 7.083-16.213 15.829-16.213h468.48c8.747 0 15.787 7.253 15.787 16.213v59.52c0.001 0.051 0.001 0.112 0.001 0.172 0 8.762-7.043 15.879-15.776 15.998h-0.011zM890.88 459.648l-213.163 217.6c-2.886 2.806-6.83 4.536-11.179 4.536s-8.293-1.73-11.182-4.54l0.004 0.004-50.603-51.627c-2.854-2.951-4.613-6.977-4.613-11.413s1.759-8.462 4.617-11.418l-0.004 0.005 96.299-98.347h-416.768c-8.782-0.072-15.873-7.208-15.873-15.999 0-0.060 0-0.12 0.001-0.18v0.009-80.128c0-8.917 7.125-16.171 15.872-16.171h416.811l-96.299-98.304c-2.866-2.954-4.633-6.988-4.633-11.435s1.767-8.481 4.637-11.439l-0.004 0.004 50.56-51.627c2.851-2.9 6.816-4.697 11.2-4.697s8.349 1.797 11.198 4.695l213.165 217.602c2.886 2.945 4.667 6.982 4.667 11.435s-1.781 8.49-4.67 11.437l0.003-0.003z" />
<glyph unicode="&#xe92d;" glyph-name="starafter" horiz-adv-x="1075" d="M1042.278 497.408c20.992 20.48 28.365 50.432 19.302 78.336-9.009 27.456-32.513 47.727-61.234 51.919l-0.411 0.049-257.946 37.478c-11.205 1.662-20.483 8.638-25.307 18.238l-0.088 0.194-115.405 233.83c-12.638 25.401-38.415 42.548-68.198 42.548-0.108 0-0.216 0-0.324-0.001h0.017c-29.286 0-55.501-16.333-68.506-42.598l-115.354-233.728c-4.919-9.788-14.194-16.761-25.21-18.409l-0.185-0.023-257.946-37.53c-29.158-4.21-52.69-24.491-61.543-51.432l-0.153-0.536c-2.414-7.087-3.807-15.251-3.807-23.74 0-21.422 8.871-40.771 23.139-54.576l0.021-0.020 186.624-181.914c6.302-6.144 10.212-14.718 10.212-24.205 0-2.012-0.176-3.984-0.513-5.899l0.030 0.203-44.032-256.922c-4.966-28.826 6.656-57.446 30.362-74.701 12.387-9.179 27.971-14.692 44.842-14.692 13.048 0 25.325 3.298 36.045 9.105l-0.4-0.198 230.656 121.293c4.557 2.443 9.97 3.878 15.718 3.878s11.161-1.435 15.9-3.967l-0.182 0.089 230.707-121.344c10.341-5.584 22.635-8.867 35.696-8.867 42.133 0 76.288 34.155 76.288 76.288 0 4.635-0.413 9.173-1.205 13.579l0.069-0.463-44.032 256.922c-0.303 1.699-0.476 3.656-0.476 5.652 0 9.483 3.906 18.053 10.197 24.191l0.007 0.007 186.624 181.965z" />
<glyph unicode="&#xe92e;" glyph-name="starbefore" horiz-adv-x="1075" d="M1042.278 497.408c20.992 20.48 28.365 50.432 19.302 78.336-9.009 27.456-32.513 47.727-61.234 51.919l-0.411 0.049-257.946 37.478c-11.205 1.662-20.483 8.638-25.307 18.238l-0.088 0.194-115.405 233.83c-12.638 25.401-38.415 42.548-68.198 42.548-0.108 0-0.216 0-0.324-0.001h0.017c-29.286 0-55.501-16.333-68.506-42.598l-115.354-233.728c-4.919-9.788-14.194-16.761-25.21-18.409l-0.185-0.023-257.946-37.53c-29.158-4.21-52.69-24.491-61.543-51.432l-0.153-0.536c-2.414-7.087-3.807-15.251-3.807-23.74 0-21.422 8.871-40.771 23.139-54.576l0.021-0.020 186.624-181.914c6.302-6.144 10.212-14.718 10.212-24.205 0-2.012-0.176-3.984-0.513-5.899l0.030 0.203-44.032-256.922c-4.966-28.826 6.656-57.446 30.362-74.701 12.387-9.179 27.971-14.692 44.842-14.692 13.048 0 25.325 3.298 36.045 9.105l-0.4-0.198 230.656 121.293c4.557 2.443 9.97 3.878 15.718 3.878s11.161-1.435 15.9-3.967l-0.182 0.089 230.707-121.344c10.341-5.584 22.635-8.867 35.696-8.867 42.133 0 76.288 34.155 76.288 76.288 0 4.635-0.413 9.173-1.205 13.579l0.069-0.463-44.032 256.922c-0.303 1.699-0.476 3.656-0.476 5.652 0 9.483 3.906 18.053 10.197 24.191l0.007 0.007 186.624 181.965zM803.84 278.374l44.032-256.87c0.353-1.815 0.554-3.901 0.554-6.035 0-11.091-5.45-20.909-13.819-26.921l-0.099-0.068c-5.458-4.073-12.336-6.521-19.787-6.521-5.767 0-11.191 1.467-15.92 4.048l0.174-0.087-230.707 121.344c-10.308 5.499-22.544 8.729-35.535 8.729-13.029 0-25.3-3.249-36.046-8.981l0.413 0.201-230.656-121.344c-4.545-2.481-9.955-3.939-15.706-3.939-7.468 0-14.361 2.46-19.914 6.613l0.087-0.062c-8.491 6.088-13.958 15.928-13.958 27.044 0 2.114 0.198 4.182 0.576 6.187l-0.032-0.206 44.032 256.87c0.697 3.875 1.095 8.336 1.095 12.89 0 21.434-8.827 40.805-23.045 54.678l-0.016 0.015-186.675 182.067c-6.321 6.035-10.251 14.528-10.251 23.938 0 3.802 0.641 7.454 1.822 10.854l-0.070-0.232c3.864 12.194 14.281 21.206 27.014 22.969l0.173 0.020 257.946 37.478c25.397 3.758 46.427 19.574 57.349 41.34l0.2 0.44 115.354 233.728c5.456 11.206 16.758 18.793 29.832 18.793 0.132 0 0.264-0.001 0.396-0.002h-0.020c13.158 0 24.474-7.014 30.31-18.79l115.354-233.779c11.11-22.528 32.614-38.195 57.498-41.779l257.946-37.478c12.927-1.764 23.367-10.781 27.174-22.755l0.064-0.234c1.098-3.153 1.732-6.788 1.732-10.57 0-9.432-3.942-17.944-10.269-23.977l-0.013-0.013-186.624-181.965c-14.233-13.888-23.060-33.26-23.060-54.694 0-4.554 0.398-9.015 1.163-13.35l-0.067 0.459z" />
<glyph unicode="&#xe92f;" d="M482.458-12.8c0.008 0 0.017 0 0.026 0 48.834 0 88.422 39.588 88.422 88.422v0h-176.896c0-0.008 0-0.017 0-0.026 0-48.82 39.577-88.397 88.397-88.397 0.018 0 0.036 0 0.054 0h-0.003zM747.776 252.467v221.082c0 135.936-72.294 249.344-198.989 279.424v30.054c0 0.023 0 0.050 0 0.077 0 36.576-29.651 66.227-66.227 66.227-0.027 0-0.054 0-0.081 0h0.004c-0.038 0-0.083 0-0.128 0-36.576 0-66.227-29.651-66.227-66.227 0-0.027 0-0.054 0-0.081v0.004-30.080c-126.694-30.054-198.989-143.462-198.989-279.424v-221.056l-88.448-88.422v-44.211h707.533v44.211l-88.422 88.422z" />
<glyph unicode="&#xe930;" d="M873.856 730.419c0-86.273-69.434-156.211-155.085-156.211s-155.085 69.938-155.085 156.211c0 86.273 69.434 156.211 155.085 156.211s155.085-69.938 155.085-156.211z" />
<glyph unicode="&#xe931;" glyph-name="menu" d="M926.72 396.8h-829.44c-25.446 0-46.080 17.203-46.080 38.4s20.634 38.4 46.080 38.4h829.44c25.446 0 46.080-17.203 46.080-38.4s-20.634-38.4-46.080-38.4zM926.72 115.2h-368.64c-25.446 0-46.080 17.203-46.080 38.4s20.634 38.4 46.080 38.4h368.64c25.446 0 46.080-17.203 46.080-38.4s-20.634-38.4-46.080-38.4zM465.92 678.4h-368.64c-25.446 0-46.080 17.203-46.080 38.4s20.634 38.4 46.080 38.4h368.64c25.446 0 46.080-17.203 46.080-38.4s-20.634-38.4-46.080-38.4z" />
<glyph unicode="&#xe932;" horiz-adv-x="1043" d="M512 770.37h18.963c178.040 0 322.37-144.33 322.37-322.37s-144.33-322.37-322.37-322.37h-18.963c-178.040 0-322.37 144.33-322.37 322.37s144.33 322.37 322.37 322.37z" />
<glyph unicode="&#xe933;" horiz-adv-x="1043" d="M512 770.37h18.963c178.040 0 322.37-144.33 322.37-322.37s-144.33-322.37-322.37-322.37h-18.963c-178.040 0-322.37 144.33-322.37 322.37s144.33 322.37 322.37 322.37z" />
<glyph unicode="&#xe934;" horiz-adv-x="1043" d="M691.617 570.197c-4.267 4.175-10.112 6.751-16.559 6.751-0.018 0-0.037 0-0.055 0h0.003c-6.22 0-12.193-2.427-16.593-6.751l-199.168-195.527-74.619 73.33c-4.287 4.196-10.161 6.785-16.64 6.785-6.46 0-12.319-2.574-16.607-6.752l0.005 0.005c-4.257-4.145-6.898-9.932-6.898-16.336 0-6.395 2.633-12.174 6.874-16.313l0.005-0.004 91.288-89.581c4.399-4.324 10.373-6.751 16.593-6.751s12.193 2.427 16.612 6.751l215.761 211.835c4.232 4.136 6.856 9.901 6.856 16.28s-2.624 12.144-6.852 16.275l-0.004 0.004z" />
<glyph unicode="&#xe935;" glyph-name="up" horiz-adv-x="1664" d="M1452.288 82.432c22.309-19.357 51.633-31.153 83.712-31.153 70.719 0 128.049 57.329 128.049 128.049 0 38.64-17.115 73.283-44.178 96.761l-0.159 0.135-755.328 652.672c-22.298 19.34-51.604 31.126-83.663 31.126-35.364 0-67.378-14.341-90.545-37.525l-652.801-652.673c-23.149-23.165-37.466-55.159-37.466-90.496 0-70.707 57.319-128.026 128.026-128.026 35.369 0 67.389 14.343 90.559 37.529l568.705 568.449 665.216-574.72z" />
<glyph unicode="&#xe936;" glyph-name="privacy" d="M891.733 741.333c-148.48 0-262.229 41.6-358.443 133.333-96.213-91.733-209.963-133.333-358.485-133.333 0-238.848-50.389-580.992 358.485-719.915 408.875 138.923 358.443 481.067 358.443 719.915zM503.595 321.067l-119.467 117.077 53.504 52.437 65.963-64.683 125.355 122.88 53.461-52.395-178.816-175.36z" />
<glyph unicode="&#xe937;" glyph-name="settings" d="M935.253 495.701c-1.365 11.989-15.36 20.992-27.435 20.992-0.217-0.002-0.474-0.003-0.731-0.003-39.228 0-72.887 23.847-87.27 57.835l-0.234 0.621c-4.355 10.504-6.884 22.702-6.884 35.491 0 27.621 11.796 52.487 30.626 69.835l0.066 0.060c4.733 4.344 7.689 10.559 7.689 17.465 0 5.56-1.916 10.672-5.123 14.712l0.037-0.049c-20.156 25.492-42.326 47.878-66.74 67.597l-0.802 0.627c-4.020 3.234-9.186 5.19-14.809 5.19-6.981 0-13.258-3.016-17.599-7.815l-0.018-0.020c-25.387-28.16-70.997-38.571-106.283-23.893-34.231 14.782-57.753 48.248-57.753 87.208 0 1.892 0.055 3.771 0.165 5.635l-0.012-0.257c0.026 0.416 0.041 0.902 0.041 1.391 0 12.107-9.102 22.088-20.836 23.473l-0.111 0.011c-14.733 1.808-31.789 2.84-49.086 2.84-16.498 0-32.777-0.939-48.786-2.766l1.957 0.182c-11.92-1.37-21.090-11.402-21.090-23.576 0-0.277 0.005-0.552 0.014-0.826l-0.001 0.040c0.038-1.005 0.060-2.185 0.060-3.371 0-39.257-23.849-72.943-57.849-87.361l-0.622-0.234c-34.816-14.251-80.128-3.84-105.515 24.021-4.362 4.771-10.613 7.752-17.56 7.752-5.532 0-10.623-1.89-14.662-5.060l0.051 0.039c-25.779-20.33-48.405-42.712-68.32-67.375l-0.63-0.806c-3.256-4.027-5.226-9.211-5.226-14.854 0-6.958 2.995-13.216 7.767-17.555l0.019-0.017c29.653-26.88 39.253-69.589 23.808-106.368-14.72-35.029-51.115-57.6-92.757-57.6-0.466 0.033-1.009 0.052-1.556 0.052-12.017 0-21.898-9.15-23.055-20.863l-0.008-0.096c-3.755-32.043-3.797-64.683-0.171-96.981 1.323-12.032 15.744-20.949 27.947-20.949 37.12 0.939 72.747-22.059 87.723-58.453 14.891-36.309 5.291-78.677-23.851-105.387-4.718-4.343-7.664-10.548-7.664-17.442 0-5.57 1.923-10.69 5.141-14.734l-0.037 0.048c19.797-25.216 42.496-48.213 67.413-68.267 4.024-3.245 9.198-5.208 14.832-5.208 6.969 0 13.237 3.005 17.577 7.791l0.018 0.020c25.515 28.203 71.168 38.656 106.283 23.893 34.271-14.711 57.838-48.169 57.838-87.131 0-1.889-0.055-3.765-0.165-5.627l0.012 0.257c-0.026-0.417-0.041-0.905-0.041-1.395 0-12.115 9.098-22.106 20.835-23.511l0.113-0.011c14.732-1.816 31.785-2.852 49.081-2.852 16.5 0 32.78 0.943 48.789 2.778l-1.955-0.182c11.94 1.349 21.134 11.391 21.134 23.581 0 0.29-0.005 0.579-0.016 0.866l0.001-0.042c-0.040 1.028-0.063 2.235-0.063 3.448 0 39.202 23.815 72.842 57.767 87.241l0.621 0.234c35.072 14.336 80.213 3.84 105.557-24.021 8.448-9.173 22.357-10.24 32.171-2.688 25.773 20.336 48.399 42.718 68.32 67.376l0.63 0.805c3.265 4.026 5.242 9.211 5.242 14.859 0 6.959-3.002 13.218-7.782 17.55l-0.020 0.018c-19.129 17.353-31.092 42.306-31.092 70.053 0 13.089 2.662 25.557 7.475 36.891l-0.233-0.618c14.928 34.118 48.306 57.567 87.184 57.771h0.026l5.248-0.128c0.419-0.026 0.908-0.041 1.4-0.041 12.124 0 22.124 9.095 23.549 20.834l0.011 0.114c1.827 14.828 2.87 31.994 2.87 49.402 0 16.748-0.965 33.271-2.842 49.516l0.186-1.98zM512.299 305.28c-78.51 0.073-142.135 63.698-142.208 142.201v0.007c0.097 78.492 63.713 142.093 142.201 142.165h0.007c78.495-0.073 142.111-63.674 142.208-142.156v-0.009c-0.073-78.51-63.698-142.135-142.201-142.208h-0.007z" />
<glyph unicode="&#xe938;" glyph-name="share" d="M896 448.256l-319.155 357.376v-213.197h-67.866c-210.432 0-380.979-174.182-380.979-389.018v-112.998l30.131 33.741c102.477 114.637 247.475 179.968 399.488 179.968h19.2v-213.222l319.181 357.376z" />
<glyph unicode="&#xe939;" glyph-name="trainer" horiz-adv-x="2164" d="M1108.876 691.433c0-20.945-17.315-37.911-38.656-37.911s-38.656 16.989-38.656 37.935c0 20.945 17.315 37.911 38.633 37.911 21.364 0 38.679-16.989 38.679-37.935zM1108.876 691.433h7.727c0 25.135-20.759 45.498-46.383 45.521-25.623 0-46.383-20.364-46.383-45.521 0-25.135 20.759-45.475 46.383-45.498 25.6 0 46.383 20.387 46.383 45.498h-15.453c0-8.378-3.468-15.919-9.076-21.434-5.607-5.497-13.296-8.89-21.777-8.89-0.035 0-0.070 0-0.105 0h0.005c-8.541 0-16.221 3.398-21.853 8.89-5.587 5.443-9.053 13.040-9.053 21.446s3.466 16.003 9.046 21.44l0.006 0.006c5.632 5.492 13.312 8.89 21.876 8.89s16.244-3.375 21.876-8.89c5.585-5.516 9.030-13.033 9.053-21.457h7.727zM1102.359 617.169l73.868 129.629c2.784 4.574 7.743 7.582 13.404 7.582 2.842 0 5.507-0.758 7.803-2.083l-0.076 0.040c7.377-4.189 9.914-13.475 5.655-20.713l-73.868-129.629c-2.784-4.574-7.743-7.582-13.404-7.582-2.842 0-5.507 0.758-7.803 2.083l0.076-0.040c-4.637 2.614-7.717 7.507-7.717 13.12 0 2.799 0.766 5.419 2.1 7.662l-0.038-0.069zM1102.359 617.169l6.749-3.7 73.868 129.629-6.749 3.677 6.703-3.77c1.373 2.298 3.847 3.813 6.675 3.813 1.414 0 2.74-0.379 3.881-1.040l-0.014-0.003c2.313-1.323 3.846-3.776 3.846-6.587 0-1.387-0.374-2.688-1.026-3.806l0.019 0.036-0.047-0.093-73.868-129.629 6.749-3.7-6.703 3.817c-1.369-2.315-3.853-3.843-6.693-3.843-1.435 0-2.779 0.39-3.932 1.070l0.036-0.020h0.023c-2.313 1.323-3.846 3.776-3.846 6.587 0 1.387 0.374 2.688 1.026 3.806l-0.019-0.036 0.070 0.093-6.749 3.7-6.703 3.817c-1.945-3.242-3.095-7.153-3.095-11.333 0-0.017 0-0.033 0-0.050v0.003c0-7.843 4.166-15.5 11.59-19.712 3.321-1.901 7.301-3.022 11.542-3.022 8.489 0 15.93 4.492 20.074 11.228l0.058 0.102 0.070 0.093 73.868 129.629-6.749 3.7 6.703-3.793c1.961 3.265 3.121 7.205 3.121 11.415 0 8.421-4.64 15.759-11.502 19.595l-0.114 0.058c-3.323 1.932-7.313 3.072-11.569 3.072-0.007 0-0.015 0-0.022 0h0.001c-0.026 0-0.058 0-0.089 0-8.474 0-15.89-4.529-19.96-11.299l-0.059-0.105-0.047-0.070-73.868-129.629 6.749-3.7zM896.233 388.422l104.192 107.753c2.835 2.838 6.753 4.594 11.081 4.594 4.188 0 7.991-1.643 10.801-4.32l-0.006 0.006c2.874-2.732 4.662-6.584 4.662-10.853 0-4.144-1.684-7.894-4.405-10.604l-0.001-0.001-104.169-107.753c-2.835-2.818-6.743-4.561-11.058-4.561-4.197 0-8.010 1.649-10.825 4.334l0.006-0.006c-2.86 2.73-4.638 6.573-4.638 10.83 0 4.132 1.675 7.873 4.382 10.58v0zM896.256 388.445h-0.023l-5.585 5.213 104.239 107.823c4.515 4.538 10.589 6.865 16.593 6.865h-0.003c0.020 0 0.041 0 0.061 0 6.264 0 11.953-2.465 16.14-6.47l0.008-0.008c4.286-4.101 6.955-9.878 6.955-16.279 0-6.194-2.5-11.805-6.545-15.876l-5.516 5.283 5.585-5.213-104.262-107.822c-4.515-4.538-10.589-6.842-16.593-6.842-5.818-0.023-11.706 2.141-16.198 6.447l-0.009 0.009c-4.302 4.091-6.984 9.871-6.984 16.277 0 6.212 2.522 11.834 6.598 15.901l5.539-5.306 5.585-5.213-0.070-0.093c-1.353-1.352-2.19-3.221-2.19-5.285 0-2.133 0.894-4.056 2.33-5.421l-0.002 0.002c1.393-1.342 3.288-2.167 5.375-2.167 0.009 0 0.019 0 0.027 0h-0.001c0.009 0 0.018 0 0.026 0 2.157 0 4.108 0.881 5.514 2.304l5.516-5.306-5.585 5.213 104.24 107.801c1.373 1.351 2.224 3.23 2.224 5.308 0 2.146-0.908 4.080-2.364 5.443-1.513 1.443-3.421 2.141-5.399 2.141h0.001c-0.009 0-0.017 0-0.026 0-2.145 0-4.087-0.872-5.491-2.281l-5.539 5.283 5.609-5.19-104.169-107.753-5.632 5.19zM1040.64 617.169l-0.038 0.069c1.339-2.244 2.109-4.867 2.109-7.67 0-5.612-3.085-10.504-7.726-13.111-7.377-4.189-16.849-1.699-21.108 5.539l-73.83 129.56c-1.334 2.243-2.1 4.863-2.1 7.662 0 5.612 3.080 10.505 7.717 13.12l-0.076-0.040c2.293 1.319 4.952 2.073 7.786 2.073 5.657 0 10.613-3.004 13.398-7.572l73.868-129.629zM1040.64 617.169l6.749 3.724-73.891 129.652c-4.128 6.875-11.545 11.404-20.019 11.404-0.031 0-0.063 0-0.094 0h0.005c-0.010 0-0.022 0-0.033 0-4.252 0-8.238-1.14-11.668-3.132l0.111 0.060c-6.945-3.95-11.56-11.289-11.59-19.708v-0.004c0.010-4.183 1.168-8.093 3.175-11.435l-0.056 0.101 6.703 3.77-6.749-3.724 73.914-129.676c4.189-6.851 11.629-11.354 20.121-11.354 4.237 0 8.212 1.121 11.645 3.083l-0.115-0.061h0.023c7.447 4.189 11.636 11.869 11.613 19.712-0.001 4.199-1.16 8.126-3.175 11.481l0.056-0.101-6.703-3.817-6.679-3.817c0.698-1.164 1.024-2.444 1.024-3.724 0-2.676-1.373-5.19-3.863-6.609h0.023c-1.109-0.635-2.438-1.009-3.854-1.009-2.843 0-5.333 1.508-6.715 3.767l-0.020 0.034-6.679-3.817 6.749 3.724-73.914 129.676c-0.643 1.088-1.022 2.398-1.022 3.797 0 2.808 1.53 5.258 3.801 6.563l0.037 0.019h0.023c1.108 0.648 2.44 1.030 3.861 1.030 2.832 0 5.31-1.519 6.662-3.788l0.020-0.036 6.703 3.817-6.749-3.724 73.914-129.722 6.679 3.817zM1186.211 365.359c-0.082-0.002-0.179-0.002-0.276-0.002-8.393 0-15.197 6.804-15.197 15.197 0 0.88 0.075 1.743 0.219 2.583l-0.013-0.090 13.498 79.383-58.647 25.577c-5.441 2.35-9.18 7.67-9.18 13.863 0 2.228 0.484 4.343 1.352 6.246l-0.038-0.094c2.528 5.367 7.892 9.015 14.108 9.015 2.282 0 4.448-0.492 6.4-1.374l-0.098 0.040 69.585-30.324c5.445-2.37 9.183-7.704 9.183-13.91 0-0.865-0.073-1.714-0.212-2.539l0.012 0.089-15.476-90.996c-1.338-7.245-7.607-12.661-15.14-12.661-0.028 0-0.056 0-0.084 0h0.004zM1186.211 365.359v7.587l-1.303 0.093c-3.643 0.589-6.399 3.689-6.446 7.442v0.005l0.093 1.28 13.498 79.43c0.064 0.369 0.101 0.795 0.101 1.229 0 3.1-1.87 5.762-4.544 6.921l-0.049 0.019-58.647 25.577c-2.7 1.194-4.55 3.85-4.55 6.938 0 1.102 0.236 2.15 0.66 3.094l-0.019-0.048c1.244 2.699 3.926 4.539 7.039 4.539 1.125 0 2.193-0.24 3.157-0.672l-0.002-0.004 69.585-30.348c2.839-1.21 4.585-3.956 4.585-6.912l-0.093-1.28-15.476-90.996c-0.674-3.61-3.8-6.307-7.556-6.307-0.011 0-0.022 0-0.032 0h0.002v-15.174c11.171 0 20.945 7.889 22.854 19.014l15.453 90.996c0.201 1.13 0.316 2.431 0.316 3.759 0 9.282-5.608 17.255-13.621 20.714l-0.146 0.056-69.539 30.324c-2.806 1.297-6.088 2.053-9.548 2.053-9.327 0-17.371-5.498-21.065-13.43l-0.060-0.143c-1.249-2.696-1.978-5.851-1.978-9.176 0-0.022 0-0.044 0-0.066v0.003c0-8.727 5.12-17.036 13.777-20.806l53.155-23.18-12.497-73.635c-0.18-1.078-0.282-2.32-0.282-3.586 0-12.648 10.253-22.9 22.9-22.9 0.099 0 0.198 0.001 0.297 0.002h-0.015v7.587zM1116.602 538.833l7.727 73.146c-0.092 10.405-8.548 18.805-18.967 18.805-0.066 0-0.131 0-0.197-0.001h-69.901c-0.056 0.001-0.121 0.001-0.187 0.001-10.423 0-18.885-8.397-18.99-18.795v-0.010l7.75-81.315-48.989-43.497 45.289-41.309 51.363 55.994 73.076-32.465 18.013 50.455-45.987 18.991zM1119.604 545.815l-6.004-13.964-0.050 0.018c-2.74 1.137-4.667 3.838-4.667 6.989 0 0.27 0.014 0.536 0.039 0.766l7.727 73.146 7.68-0.791h-7.727c-0.023 6.191-5.12 11.217-11.427 11.217h-69.935c-6.284-0.023-11.404-5.027-11.404-11.217h-7.727l7.68 0.698 7.727-81.315-0.002 0.031c0.023-0.241 0.035-0.485 0.035-0.732 0-2.234-0.972-4.242-2.523-5.629l-42.729-37.935 33.373-30.441 46.085 50.251c1.433 1.552 3.485 2.525 5.764 2.525 1.146 0 2.235-0.246 3.168-0.668l65.396-29.044 12.8 35.91-39.284 16.221 3.002 6.982v0.023l3.002 6.982 46.037-19.009c2.736-1.131 4.661-3.826 4.661-6.971 0-0.898-0.157-1.76-0.429-2.506l-18.008-50.509c-1.124-2.941-3.971-5.030-7.307-5.030-1.139 0-2.221 0.243-3.148 0.661l-67.956 30.185-47.573-51.88c-1.432-1.542-3.477-2.506-5.747-2.506-2.025 0-3.871 0.768-5.256 2.022l-45.289 41.332c-1.583 1.443-2.467 3.491-2.467 5.585v0.006c0.033 2.208 1.013 4.188 2.56 5.556l46.080 40.96-7.354 77.545-0.047 0.698c0.023 14.569 12.055 26.368 26.903 26.368h69.911c14.848 0 26.903-11.799 26.903-26.368l-0.047-0.791-11.101-54.505-1.327-10.845zM915.596 744.518c-4.282 0-7.727 3.398-7.727 7.587v0.004c0.039 4.195 3.452 7.584 7.656 7.584 0.025 0 0.049 0 0.070 0h316.971c0.025 0 0.049 0 0.074 0 4.204 0 7.617-3.389 7.656-7.587v-0.004c-0.039-4.195-3.452-7.584-7.656-7.584-0.025 0-0.049 0-0.070 0h-316.975zM892.393 812.777h23.203v-121.344h-23.203zM915.596 691.433v7.587h-15.453v106.217h7.727v-113.78h15.454v121.321c-0.013 2.095-0.874 3.987-2.257 5.352l-0.001 0.001c-1.411 1.377-3.34 2.228-5.468 2.234h-23.204c-2.118-0.006-4.037-0.848-5.448-2.213l0.002 0.002c-1.394-1.361-2.263-3.254-2.281-5.349v-121.37c0.003-2.102 0.876-3.998 2.278-5.351l0.002-0.002c1.393-1.367 3.303-2.211 5.411-2.211 0.012 0 0.025 0 0.037 0h23.201c0.014 0 0.032 0 0.049 0 2.111 0 4.024 0.844 5.422 2.212l-0.001-0.001c1.393 1.355 2.257 3.247 2.257 5.341 0 0.004 0 0.008 0 0.012v-0.001h-7.727zM869.213 812.777h23.18v-121.344h-23.18zM892.393 691.433l7.75-0.001c-0.003-2.101-0.876-3.998-2.281-5.352l0.001 0.001c-1.394-1.368-3.305-2.212-5.412-2.212-0.020 0-0.041 0-0.058 0h-23.177c-0.020 0-0.041 0-0.061 0-2.108 0-4.018 0.844-5.411 2.211l-0.002 0.002c-1.391 1.353-2.256 3.245-2.256 5.339 0 0.004 0 0.008 0 0.012v121.369c0.011 2.094 0.872 3.986 2.257 5.351l-0.002-0.002c1.416 1.37 3.344 2.213 5.47 2.213 0.001 0 0.001 0 0.001 0h23.181c2.128-0.006 4.057-0.857 5.468-2.234l0.001-0.001c1.39-1.361 2.259-3.253 2.279-5.351v-121.321h-15.477v113.78h-7.727v-106.217h15.453v-7.587zM1248.023 691.433h23.203v121.344h-23.203zM1271.226 691.433v7.587h-15.453v106.217h7.727v-113.78h15.454v121.321c-0.013 2.095-0.874 3.987-2.257 5.352l-0.001 0.001c-1.411 1.377-3.34 2.228-5.468 2.234h-23.204c-2.118-0.006-4.037-0.848-5.448-2.213l0.002 0.002c-1.394-1.361-2.263-3.254-2.281-5.349v-121.37c0.078-4.207 3.507-7.587 7.725-7.587 0 0 0.001 0 0.001 0h23.203c0.007 0 0.016 0 0.025 0 2.122 0 4.045 0.853 5.445 2.235l-0.001-0.001c1.393 1.355 2.257 3.247 2.257 5.341 0 0.004 0 0.008 0 0.012v-0.001h-7.727zM1224.844 812.777h23.18v-121.344h-23.18zM1248.023 691.433l7.75-0.001c-0.003-2.101-0.876-3.998-2.281-5.352l0.001 0.001c-1.398-1.369-3.311-2.212-5.422-2.212-0.017 0-0.034 0-0.049 0h-23.177c-0.020 0-0.041 0-0.061 0-2.108 0-4.018 0.844-5.411 2.211l-0.002 0.002c-1.391 1.353-2.256 3.245-2.256 5.339 0 0.004 0 0.008 0 0.012v121.369c0.011 2.094 0.872 3.986 2.257 5.351l-0.002-0.002c1.416 1.37 3.344 2.213 5.47 2.213 0.001 0 0.001 0 0.001 0h23.181c2.128-0.006 4.057-0.857 5.468-2.234l0.001-0.001c1.39-1.361 2.259-3.253 2.279-5.351v-121.321h-15.477v113.78h-7.727v-106.217h15.453v-7.587zM846.010 744.518c-4.259 0-7.727 3.398-7.727 7.587v0.004c0.039 4.195 3.452 7.584 7.656 7.584 0.025 0 0.049 0 0.070 0h23.199c0.025 0 0.049 0 0.074 0 4.204 0 7.617-3.389 7.656-7.587v-0.004c-0.039-4.195-3.452-7.584-7.656-7.584-0.025 0-0.049 0-0.070 0h-23.203zM1271.226 744.518c-4.259 0-7.727 3.398-7.727 7.587v0.005c0.052 4.196 3.471 7.582 7.679 7.582 0.017 0 0.033 0 0.047 0h23.199c0.025 0 0.049 0 0.074 0 4.204 0 7.617-3.389 7.656-7.587v-0.004c-0.039-4.195-3.452-7.584-7.656-7.584-0.025 0-0.049 0-0.070 0h-23.203z" />
<glyph unicode="&#xe93a;" glyph-name="weightlifting" horiz-adv-x="1117" d="M1079.761 779.217h-29.696v97.745c-0.105 10.1-8.316 18.247-18.431 18.247-0.066 0-0.131 0-0.197-0.001h-50.725c-10.24 0-18.618-8.192-18.618-18.339v-97.652h-64.884c0.123 1.329 0.193 2.874 0.193 4.436 0 26.509-20.146 48.312-45.963 50.935l-0.217 0.018c-1.67 0.192-3.606 0.301-5.567 0.301-26.358 0-48.098-19.774-51.194-45.296l-0.024-0.247-1.117-10.147h-89.553c-26.589-54.942-81.91-92.161-145.924-92.161-0.211 0-0.423 0-0.634 0.001h0.033c-0.133 0-0.291-0.001-0.449-0.001-64.030 0-119.368 37.217-145.562 91.199l-0.421 0.962h-89.181l-1.024 10.24c-3.164 25.727-24.882 45.452-51.208 45.452-1.965 0-3.904-0.11-5.812-0.324l0.234 0.021c-26.033-2.641-46.179-24.444-46.179-50.953 0-1.562 0.070-3.107 0.207-4.633l-0.014 0.197h-65.164v97.745c-0.105 10.1-8.316 18.247-18.431 18.247-0.066 0-0.131 0-0.197-0.001h-50.538c-10.24 0-18.618-8.192-18.618-18.339v-97.652h-29.696c-0.083 0.001-0.182 0.001-0.28 0.001-19.182 0-34.75-15.471-34.908-34.616v-0.015c0-19.084 15.825-34.63 35.188-34.63h29.603v-97.652c0-10.054 8.378-18.246 18.618-18.246h50.828c10.24 0 18.618 8.192 18.618 18.246v97.745h72.425l20.294-188.975c4.655-43.38 60.323-61.719 90.298-27.927l72.611 81.641v-194.467l-187.857-75.124c-21.563-8.664-37.293-27.73-41.094-50.815l-0.052-0.385-37.516-241.757c-5.585-36.119 19.642-69.818 56.32-75.404 3.114-0.513 6.703-0.806 10.361-0.806 33.226 0 60.804 24.176 66.106 55.896l0.054 0.392 31.744 204.614 173.801 69.446h154.345l173.801-69.446 31.651-204.614c5.388-32.075 32.949-56.211 66.147-56.211 3.695 0 7.32 0.299 10.853 0.874l-0.386-0.052c32.367 4.737 56.939 32.309 56.939 65.619 0 3.42-0.259 6.779-0.758 10.059l0.046-0.368-37.423 241.757c-3.853 23.47-19.583 42.536-40.701 51.042l-0.445 0.158-189.347 75.776v195.491l74.1-83.503c29.137-32.861 85.457-16.57 90.298 28.113l20.294 188.788h72.332v-97.652c0-10.054 8.378-18.246 18.618-18.246h50.735c10.24 0 18.618 8.192 18.618 18.246v97.745h29.696c0.084-0.001 0.182-0.001 0.281-0.001 19.149 0 34.697 15.418 34.907 34.518v0.020c-0.158 19.16-15.726 34.631-34.908 34.631-0.099 0-0.197 0-0.295-0.001h0.015zM335.965 647.587l-6.796 62.371h62.185l-55.482-62.371zM779.078 647.587c-25.6 28.858 7.447-8.192-55.389 62.371h62.185l-6.703-62.371zM673.327 845.684c0-63.032-51.931-114.129-115.991-114.129s-115.991 51.097-115.991 114.129c0 63.032 51.931 114.129 115.991 114.129s115.991-51.097 115.991-114.129z" />
<glyph unicode="&#xe93b;" glyph-name="event_calender" d="M397.056 301.722l-15.821-93.184c-2.15-12.698 3.123-25.6 13.67-33.178 5.575-4.030 12.547-6.446 20.084-6.446 5.814 0 11.292 1.438 16.098 3.977l-0.188-0.091 84.48 43.674 84.429-43.725c4.606-2.403 10.060-3.813 15.842-3.813 7.556 0 14.549 2.407 20.256 6.496l-0.105-0.071c8.607 6.226 14.142 16.239 14.142 27.544 0 1.99-0.171 3.94-0.501 5.836l0.029-0.202-15.821 93.184 67.994 66.15c6.383 6.172 10.346 14.812 10.346 24.378 0 17.095-12.656 31.235-29.11 33.559l-0.18 0.021-94.208 13.824-42.496 84.634c2.34 4.524 3.712 9.874 3.712 15.545 0 19.002-15.404 34.406-34.406 34.406s-34.406-15.404-34.406-34.406c0-5.671 1.372-11.022 3.802-15.738l-0.090 0.193-42.394-84.634-94.208-13.824c-12.978-1.933-23.45-10.936-27.475-22.902l-0.070-0.241c-1.069-3.146-1.685-6.77-1.685-10.538 0-9.523 3.94-18.127 10.278-24.269l0.009-0.009 67.994-66.15zM920.32 851.302h-107.93v59.392c-0.116 27.256-22.238 49.306-49.51 49.306-0.072 0-0.144 0-0.216 0h-7.874c-0.061 0-0.133 0-0.205 0-27.29 0-49.423-22.079-49.51-49.349v-59.349h-380.672v59.392c-0.116 27.256-22.238 49.306-49.51 49.306-0.072 0-0.144 0-0.216 0h-7.925c-0.046 0-0.1 0-0.154 0-27.29 0-49.423-22.079-49.51-49.349v-59.349h-106.701c-56.422 0-102.4-45.568-102.4-101.53v-710.707c0-55.962 45.978-101.53 102.4-101.53h809.882c56.422 0 102.349 45.568 102.349 101.53v710.656c-0.29 56.164-45.887 101.581-102.092 101.581-0.108 0-0.217 0-0.325-0.001h0.017zM906.957 52.326h-783.206v553.216h783.206v-553.216z" />
<glyph unicode="&#xe93c;" glyph-name="filter1" d="M1018.56 931.712c-8.256 18.88-22.464 28.288-42.88 28.288h-928.448c-20.352 0-34.624-9.408-42.88-28.288-8.192-19.84-4.8-36.736 10.176-50.816l357.632-357.632v-352.576c0-12.544 4.608-23.424 13.824-32.64l185.664-185.728c7.899-8.483 19.131-13.773 31.599-13.773 0.366 0 0.731 0.005 1.095 0.014l-0.054-0.001c5.824 0 11.904 1.216 18.176 3.648 18.88 8.192 28.288 22.464 28.288 42.752v538.304l357.632 357.632c15.040 14.080 18.368 30.976 10.176 50.816z" />
<glyph unicode="&#xe93d;" glyph-name="workout" horiz-adv-x="906" d="M450.56 789.15c47.029 0.112 85.11 38.262 85.11 85.307 0 0.055 0 0.111 0 0.166v-0.009c0 0.023 0 0.051 0 0.079 0 47.045-38.081 85.195-85.099 85.307h-0.011c-47.041-0.067-85.15-38.217-85.15-85.268 0-0.055 0-0.111 0-0.166v0.009c0-47.183 38.124-85.465 85.15-85.465zM833.418 751.734c-5.331 4.906-12.475 7.913-20.322 7.913-8.934 0-16.958-3.899-22.463-10.088l-0.027-0.030c-0.473-0.512-44.347-48.758-105.157-49.073h-0.63c-41.551 0-83.023 22.292-123.353 66.324-6.577 7.207-16.030 9.61-24.694 9.61 0 0-130.639 0.158-174.946 0.158-8.511-0.086-16.122-3.867-21.318-9.813l-0.029-0.034c-40.369-43.953-81.802-66.284-123.353-66.284h-0.67c-60.81 0.315-104.684 48.561-104.999 48.955-5.531 6.318-13.611 10.287-22.619 10.287-7.806 0-14.916-2.98-20.254-7.865l0.023 0.021c-6.227-5.728-10.115-13.915-10.115-23.011 0-7.885 2.922-15.088 7.743-20.584l-0.031 0.036c2.442-2.836 61.322-68.687 149.11-69.593h1.969c45.607 0 89.836 17.329 131.545 51.515v-705.772c0-25.6 20.401-46.316 45.529-46.316 25.167 0 45.489 20.716 45.489 46.316v349.538h21.662v-349.538c0-25.6 20.401-46.316 45.529-46.316 25.167 0 45.529 20.716 45.529 46.316v706.56c41.708-34.737 86.331-52.263 132.332-52.263h1.812c87.828 0.945 146.629 66.796 149.11 69.593 4.784 5.449 7.703 12.638 7.703 20.509 0 9.062-3.869 17.22-10.045 22.912l-0.022 0.020zM708.372 748.82c8.034-10.398 23.906-13.627 34.146-5.474l6.302 5.002 71.759-93.145-6.302-5.041c-5.673-4.346-9.296-11.123-9.296-18.747 0-5.384 1.807-10.347 4.847-14.314l-0.041 0.056c4.181-5.39 10.66-8.826 17.94-8.826 5.593 0 10.712 2.027 14.663 5.387l-0.032-0.027 49.506 39.424c5.673 4.346 9.296 11.123 9.296 18.747 0 5.384-1.807 10.347-4.847 14.314l0.041-0.056c-4.181 5.39-10.66 8.826-17.94 8.826-5.593 0-10.712-2.027-14.663-5.387l0.032 0.027-3.348-2.678-71.798 93.184 3.348 2.678c10.24 8.153 11.028 24.576 2.993 35.052-8.034 10.398-23.946 13.588-34.186 5.435l-49.467-39.385c-10.24-8.192-10.988-24.615-2.954-35.052zM195.426 748.82c-8.034-10.398-23.906-13.627-34.146-5.474l-6.302 5.002-71.759-93.145 6.302-5.041c10.24-8.153 12.524-22.567 4.49-33.004-4.181-5.402-10.666-8.847-17.956-8.847-5.604 0-10.732 2.035-14.686 5.407l0.032-0.026-49.467 39.424c-5.688 4.345-9.32 11.131-9.32 18.766 0 5.376 1.801 10.331 4.833 14.295l-0.042-0.057c4.181 5.402 10.666 8.847 17.956 8.847 5.604 0 10.732-2.035 14.686-5.407l-0.032 0.026 3.348-2.678 71.759 93.184-3.348 2.678c-10.24 8.153-10.988 24.576-2.954 35.052 8.034 10.398 23.906 13.588 34.146 5.435l49.506-39.385c10.24-8.192 10.988-24.615 2.954-35.052z" />
<glyph unicode="&#xe93e;" glyph-name="user-ok" horiz-adv-x="981" d="M883.2 166.4c-3.072 2.048-7.168 5.12-12.245 8.192-39.488-21.285-86.42-33.793-136.274-33.793-0.241 0-0.482 0-0.723 0.001h0.037c-0.038 0-0.083 0-0.129 0-164.242 0-297.387 133.145-297.387 297.387 0 0.21 0 0.42 0.001 0.63v-0.033c0 0.068 0 0.148 0 0.228 0 147.671 107.633 270.203 248.728 293.425l1.725 0.234c0 6.144-1.024 12.288-2.048 18.432 0 0 3.072 194.56-220.8 205.824-223.872-11.264-220.8-205.824-220.8-205.824-1.666-14.955-2.617-32.293-2.617-49.854 0-72.968 16.413-142.103 45.749-203.914l-1.233 2.888c18.432-38.912 34.773-60.416 34.773-60.416 10.24-17.408 16.341-31.744 20.48-43.008 5.077-17.408 4.053-26.624 4.053-26.624-2.048-50.176-263.723-178.176-298.496-204.8-33.707-26.624-36.779-63.488-36.779-63.488v-164.864h910.763v164.864c0 2.048-3.029 37.888-36.779 64.512zM501.931 504.32c24.077 88.363 95.421 155.376 184.518 172.81l1.509 0.246c14.716 3.176 31.65 5.037 49.004 5.12h0.062c134.379-0.073 243.286-109.025 243.286-243.413 0-0.105 0-0.21 0-0.315v0.016c0-107.52-69.547-199.68-166.613-231.424-22.74-7.742-48.935-12.21-76.174-12.21-119.004 0-218.086 85.294-239.448 198.084l-0.239 1.518c-2.613 12.838-4.108 27.595-4.108 42.7 0 0.828 0.004 1.655 0.013 2.481l-0.001-0.126c0 22.528 3.072 44.032 8.192 64.512zM631.424 439.595l-34.091-33.493 99.669-86.101 156.331 185.173-39.339 28.16-122.752-145.408-59.819 51.627z" />
<glyph unicode="&#xe93f;" glyph-name="check-mark" d="M512.003 959.997c-282.32 0-512.003-229.68-512.003-511.997s229.683-511.997 512.003-511.997c282.317 0 511.997 229.68 511.997 511.997s-229.68 511.997-511.997 511.997zM512.003 19.937c-236.039 0-428.069 192.024-428.069 428.063 0 236.035 192.031 428.063 428.069 428.063 236.035 0 428.063-192.027 428.063-428.063 0-236.039-192.027-428.063-428.063-428.063zM733.491 644.509l-303.995-303.998-138.988 138.988c-16.391 16.387-42.961 16.387-59.351 0-16.387-16.391-16.387-42.961 0-59.351l168.663-168.663c8.195-8.192 18.935-12.291 29.676-12.291s21.48 4.099 29.676 12.291l333.671 333.671c16.387 16.391 16.387 42.961 0 59.351-16.391 16.391-42.964 16.391-59.351 0.003z" />
<glyph unicode="&#xe940;" glyph-name="user-navigate" horiz-adv-x="981" d="M883.2 166.4c-3.072 2.048-7.168 5.12-12.245 8.192-39.488-21.285-86.42-33.793-136.274-33.793-0.241 0-0.482 0-0.723 0.001h0.037c-0.038 0-0.083 0-0.129 0-164.242 0-297.387 133.145-297.387 297.387 0 0.21 0 0.42 0.001 0.63v-0.033c0 0.068 0 0.148 0 0.228 0 147.671 107.633 270.203 248.728 293.425l1.725 0.234c0 6.144-1.024 12.288-2.048 18.432 0 0 3.072 194.56-220.8 205.824-223.872-11.264-220.8-205.824-220.8-205.824-1.666-14.955-2.617-32.293-2.617-49.854 0-72.968 16.413-142.103 45.749-203.914l-1.233 2.888c18.432-38.912 34.773-60.416 34.773-60.416 10.24-17.408 16.341-31.744 20.48-43.008 5.077-17.408 4.053-26.624 4.053-26.624-2.048-50.176-263.723-178.176-298.496-204.8-33.707-26.624-36.779-63.488-36.779-63.488v-164.864h910.763v164.864c0 2.048-3.029 37.888-36.779 64.512zM501.931 504.32c24.077 88.363 95.421 155.376 184.518 172.81l1.509 0.246c14.716 3.176 31.65 5.037 49.004 5.12h0.062c134.379-0.073 243.286-109.025 243.286-243.413 0-0.105 0-0.21 0-0.315v0.016c0-107.52-69.547-199.68-166.613-231.424-22.74-7.742-48.935-12.21-76.174-12.21-119.004 0-218.086 85.294-239.448 198.084l-0.239 1.518c-2.613 12.838-4.108 27.595-4.108 42.7 0 0.828 0.004 1.655 0.013 2.481l-0.001-0.126c0 22.528 3.072 44.032 8.192 64.512zM614.144 472.149c-9.215-0.023-16.691-7.439-16.811-16.629v-14.304c0-9.259 7.552-17.28 16.555-17.28h200.32l-63.531-65.323c-2.949-3.051-4.767-7.212-4.767-11.797s1.818-8.747 4.772-11.802l-0.005 0.005 9.813-10.112c2.909-3.032 6.995-4.915 11.52-4.915s8.611 1.884 11.515 4.91l0.005 0.005 107.691 111.147c2.957 3.052 4.779 7.218 4.779 11.81 0 0.048 0 0.096-0.001 0.144v-0.007c0 0.041 0.001 0.089 0.001 0.137 0 4.592-1.822 8.758-4.784 11.814l0.004-0.004-107.691 111.147c-2.909 3.032-6.995 4.915-11.52 4.915s-8.611-1.884-11.515-4.91l-0.005-0.005-9.813-10.112c-2.957-3.071-4.779-7.253-4.779-11.861 0-0.030 0-0.060 0-0.090v0.005c0-4.523 1.707-8.832 4.779-11.989l62.848-64.981-199.424 0.085z" />
<glyph unicode="&#xe941;" glyph-name="timer-icon" horiz-adv-x="967" d="M960.569 718.45l-104.277 106.894c-2.292 2.080-5.349 3.354-8.704 3.354s-6.412-1.274-8.715-3.364l0.011 0.010-45.625-47.9c-2.031-2.384-3.266-5.499-3.266-8.903s1.235-6.519 3.282-8.922l-0.016 0.019 104.334-106.837c4.324-4.437 13.028-4.437 17.351 0l45.625 46.763c2.024 2.577 3.246 5.868 3.246 9.444s-1.222 6.866-3.271 9.477l0.025-0.033zM818.233 682.837c-37.859 38.765-82.927 70.294-133.066 92.45l-2.728 1.076c-28.486 12.492-61.705 22.534-96.314 28.525l-2.616 0.375v37.888c0 5.518 4.38 10.012 9.785 10.012h23.893c10.83 0.095 19.572 8.897 19.572 19.74 0 0.1-0.001 0.2-0.002 0.3v-0.015 64.569c0.001 0.068 0.001 0.148 0.001 0.229 0 10.823-8.71 19.611-19.502 19.739h-201.057c-10.83-0.095-19.572-8.897-19.572-19.74 0-0.1 0.001-0.2 0.002-0.3v0.015-63.488c0-11.093 8.704-20.025 19.57-20.025h23.893c5.404 0 9.785-4.437 9.785-10.012v-37.774c-37.209-6.391-70.406-16.452-101.709-30.054l2.836 1.098c-9.785-4.437-19.57-8.875-28.274-13.312-5.404-3.413-7.623-10.069-4.324-15.588l29.298-55.694c3.3-5.518 9.785-7.794 15.246-4.437 36.805 20.107 80.091 33.309 126.107 36.689l1.040 0.061c7.992 0.669 17.297 1.050 26.691 1.050 104.185 0 197.416-46.905 259.726-120.749l0.417-0.507c50.333-59.196 81.631-135.949 83.675-219.955l0.008-0.433c0.056-2.345 0.087-5.108 0.087-7.879 0-102.104-42.97-194.172-111.812-259.108l-0.176-0.164c-59.699-56.407-140.414-91.123-229.237-91.25h-0.026c-94.673 0.006-180.184 39.228-241.175 102.306l-0.090 0.094c-61.822 63.379-99.956 150.113-99.956 245.754 0 0.462 0.001 0.924 0.003 1.386v-0.071l64.114-16.668c8.647-2.276 15.189 5.575 13.028 14.45l-63.090 218.169c-1.271 4.658-5.464 8.027-10.445 8.027-3.19 0-6.057-1.382-8.036-3.58l-0.009-0.010-160.711-161.394c-6.485-5.575-3.243-16.668 5.461-18.887l73.899-18.944v-21.163c0-58.994 10.809-115.769 33.678-170.268 21.732-52.338 52.167-99.1 91.25-139.15 76.74-78.66 183.657-127.575 302-128h0.080c0.545-0.003 1.19-0.004 1.836-0.004 59.505 0 116.041 12.714 167.039 35.573l-2.589-1.037c52.864 23.214 97.933 54.725 135.715 93.387l0.079 0.081c37.974 38.995 68.804 85.169 90.232 136.262l1.075 2.889c21.732 53.419 33.678 111.275 33.678 170.268 0.004 0.655 0.006 1.43 0.006 2.206 0 60.68-12.385 118.467-34.764 170.971l1.080-2.851c-25.031 50.062-55.41 96.825-94.549 136.875zM660.651 148.594c107.577 72.363 145.636 212.594 94.549 328.363-39.083 94.606-130.389 161.394-236.885 161.394v-248.206c0-14.507-6.485-27.876-18.432-35.612l-195.641-129.138c77.141-122.425 236.885-156.956 356.409-76.8z" />
<glyph unicode="&#xe942;" glyph-name="smiley-icon" d="M512 960c-282.782 0-512-229.218-512-512s229.218-512 512-512 512 229.218 512 512-229.218 512-512 512zM676.116 689.428c35.052 0 63.409-36.746 63.409-82.078 0-45.292-28.357-82.038-63.409-82.038s-63.409 36.706-63.409 82.038c0 45.371 28.357 82.078 63.409 82.078zM344.143 689.428c35.052 0 63.409-36.746 63.409-82.078 0-45.292-28.357-82.038-63.409-82.038-35.013 0-63.409 36.706-63.409 82.038 0 45.371 28.357 82.078 63.409 82.078zM833.457 375.532c-27.018-64.118-123.274-254.937-337.762-254.937-205.903 0-289.871 179.042-314.683 247.966-9.215-6.387-19.84-12.697-30.898-18.273l-1.555-0.711-16.345 34.422c0.512 0.236 48.443 23.276 67.505 54.311l32.414-19.929c-8.35-13.548-20.165-25.403-32.295-35.446 23.946-56.084 108.938-217.561 295.857-217.561 190.661 0 294.676 171.559 321.694 223.311-9.746 8.61-18.181 18.372-25.187 29.148l-0.334 0.548 32.414 19.929c19.102-30.996 66.993-54.075 67.505-54.311l-16.345-34.422c-16.069 8.163-29.818 16.786-42.714 26.48l0.73-0.526z" />
<glyph unicode="&#xe943;" glyph-name="filled-cross" d="M512-64c282.77 0 512 229.23 512 512s-229.23 512-512 512v0c-282.77 0-512-229.23-512-512s229.23-512 512-512v0zM618.496 448l127.424-127.488c13.248-13.554 21.422-32.118 21.422-52.59 0-41.567-33.697-75.264-75.264-75.264-20.472 0-39.035 8.174-52.604 21.436l-127.474 127.41-127.488-127.424c-13.554-13.248-32.118-21.422-52.59-21.422-41.567 0-75.264 33.697-75.264 75.264 0 20.472 8.174 39.035 21.436 52.604l127.41 127.474-127.424 127.488c-13.248 13.554-21.422 32.118-21.422 52.59 0 41.567 33.697 75.264 75.264 75.264 20.472 0 39.035-8.174 52.604-21.436l127.474-127.41 127.488 127.424c13.554 13.248 32.118 21.422 52.59 21.422 41.567 0 75.264-33.697 75.264-75.264 0-20.472-8.174-39.035-21.436-52.604l-127.41-127.474z" />
<glyph unicode="&#xe944;" glyph-name="mail" d="M894.746 239.36c0-17.152-4.71-33.075-12.288-47.078l-242.099 276.531 239.462 213.862c9.318-15.104 14.925-32.819 14.925-51.968v-391.347zM511.386 418.56l333.21 297.651c-13.122 7.653-28.863 12.218-45.661 12.339h-575.088c-16.64 0-32.026-4.685-45.645-12.339l333.184-297.626zM604.288 436.582l-77.133-68.941c-4.165-3.738-9.701-6.023-15.77-6.023s-11.604 2.286-15.792 6.043l0.022-0.019-77.158 68.941-245.146-280.064c14.264-9.378 31.74-14.978 50.521-15.027h575.066c18.637 0 35.84 5.632 50.56 15.053l-245.171 280.038zM142.925 682.675c-9.332-14.756-14.886-32.71-14.925-51.957v-391.358c0-17.152 4.71-33.075 12.288-47.078l242.099 276.557-239.462 213.837z" />
<glyph unicode="&#xe945;" glyph-name="website" d="M312.704 579.558c8.294 0 16.307-1.254 23.834-3.584 28.439 31.761 59.275 60.21 92.617 85.53l1.616 1.177c-1.422 5.635-2.251 12.109-2.278 18.773v0.018c0 8.96 1.536 17.536 4.224 25.6-35.874 26.063-76.796 49.005-120.319 66.916l-3.943 1.436c-42.107-26.303-77.512-59.066-105.923-97.331l-0.726-1.024c22.799-39.992 47.918-74.572 76.35-106.106l-0.472 0.532c10.624 5.12 22.477 8.064 35.021 8.064zM231.885 498.739c0 11.341 2.381 22.144 6.579 31.949-25.010 27.334-48.083 57.382-68.448 89.324l-1.568 2.631c-25.5-49.521-40.448-108.067-40.448-170.104 0-0.138 0-0.276 0-0.414v0.022c0-71.040 19.533-137.472 53.478-194.355 13.121 72.173 36.394 136.634 68.6 195.511l-1.682-3.358c-10.302 13.354-16.512 30.324-16.512 48.745 0 0.017 0 0.034 0 0.052v-0.003zM509.312 762.291c21.35 0 40.704-8.32 55.168-21.837 37.967 16.906 82.422 31.056 128.661 40.254l4.1 0.68c-54.209 31.819-119.391 50.611-188.963 50.611-0.132 0-0.264 0-0.396 0h0.021c-47.027 0-92.058-8.602-133.632-24.243 36.085-17.959 66.883-36.828 95.863-58.035l-1.834 1.28c11.726 7.091 25.891 11.288 41.036 11.29v0zM630.195 381.619c5.018 10.496 12.16 19.712 20.992 27.085-25.274 76.385-62.893 142.402-111.045 199.207l0.709-0.858c-9.295-4.058-20.126-6.419-31.508-6.419-17.637 0-33.95 5.669-47.215 15.285l0.234-0.162c-29.968-22.927-56.475-47.339-80.604-73.946l-0.445-0.499c7.686-12.093 12.249-26.825 12.249-42.623 0-8.631-1.362-16.944-3.883-24.736l0.159 0.568c68.28-46.289 149.497-79.058 237.084-92.489l3.274-0.413zM735.027 272.512c1.101-15.283 1.69-30.72 1.69-46.31 0-27.418-1.741-54.426-5.043-80.973 64.21 47.224 112.489 112.749 137.426 188.848l0.763 2.691c-25.397-6.472-56.052-11.8-87.364-14.891l-2.671-0.213c-7.427-22.221-23.578-39.792-44.282-48.948l-0.518-0.204zM611.251 327.296c-97.113 16.505-183.564 52.523-258.575 104l2.191-1.421c-11.997-7.508-26.572-11.96-42.187-11.96-5.857 0-11.568 0.626-17.069 1.816l0.529-0.096c-35.383-65.637-59.009-142.614-65.902-224.355l-0.146-2.154c35.726-38.295 78.966-69.072 127.431-90.058l2.464-0.95c62.843 95.763 147.689 172.251 247.622 223.482l3.642 1.696zM762.88 733.696c-60.877-5.862-119.014-21.146-173.158-44.109 0.257-2.415 0.404-5.217 0.404-8.053 0-12.954-3.061-25.193-8.5-36.033l0.211 0.464c52.738-61.55 94.541-134.27 121.292-213.901l1.332-4.569c32.702-0.587 60.611-20.503 72.835-48.782l0.202-0.524c39.707 4.076 75.86 11.411 110.651 21.888l-4.155-1.075c2.419 16.085 3.801 34.648 3.801 53.533 0 111.389-48.068 211.551-124.593 280.874l-0.321 0.287zM651.904 284.16c-96.85-46.058-176.612-114.36-235.007-198.597l-1.281-1.953c27.668-7.199 59.432-11.332 92.161-11.332 58.22 0 113.385 13.079 162.718 36.458l-2.31-0.985c7.834 38.298 11.981 77.901 11.981 118.477 0 14.669-0.666 29.184-1.766 43.546-10.179 3.308-18.993 8.205-26.638 14.475l0.142-0.113z" />
<glyph unicode="&#xe946;" glyph-name="maco" horiz-adv-x="9489" d="M1071.514 959.932l-522.65-389.53-522.65 389.598v-1013.897h186.709v645.939l183.637-136.055 152.303-114.483 152.644 114.415 183.501 136.055v-646.007h186.709v1014.033zM3304.926 959.932l-428.988-832.853-93.662-181.043h204.868l93.867 181.043 223.915 434.654 223.915-434.654 93.867-181.043h204.937l-93.525 181.043-428.988 832.922zM5548.646 453.052c0-279.552 234.428-506.88 522.65-506.88h522.923v180.975h-522.923c-185.139 0-335.872 146.295-335.872 325.905s150.733 325.905 335.872 325.905h522.923v181.043h-522.923c-288.222 0-522.65-227.328-522.65-506.948zM8934.605 127.147h-108.203c-184.934 0-335.326 146.295-335.326 325.905s150.391 325.905 335.326 325.905h108.203c184.934 0 335.394-146.295 335.394-325.905 0-179.541-150.46-325.905-335.394-325.905zM8965.803 959.113v0.887h-170.598v-0.887c-273.271-15.701-490.564-236.749-490.564-506.061s217.293-490.359 490.564-506.061h170.667c273.271 15.701 490.496 236.749 490.496 506.061s-217.225 490.359-490.564 506.061z" />
<glyph unicode="&#xe947;" glyph-name="bell" horiz-adv-x="843" d="M417.009-64c0.009 0 0.020 0 0.030 0 57.452 0 104.026 46.574 104.026 104.026v0h-208.113c0-0.009 0-0.020 0-0.030 0-57.436 46.561-103.996 103.996-103.996 0.021 0 0.042 0 0.064 0h-0.003zM729.148 248.079v260.096c0 159.925-85.052 293.346-234.104 328.734v35.358c0 0.027 0 0.059 0 0.090 0 43.031-34.883 77.914-77.914 77.914-0.032 0-0.064 0-0.095 0h0.005c-0.045 0-0.098 0-0.151 0-43.031 0-77.914-34.883-77.914-77.914 0-0.032 0-0.064 0-0.095v0.005-35.388c-149.052-35.358-234.104-168.779-234.104-328.734v-260.066l-104.056-104.026v-52.013h832.392v52.013l-104.026 104.026z" />
<glyph unicode="&#xe948;" glyph-name="mypartners_orange" d="M432.486 207.974c2.15 7.475 4.352 13.875 7.629 20.275-33.792-4.25-65.382-5.325-81.715 0-10.906 5.325-39.219 36.301-54.477 52.275-13.172 14.825-26.678 28.412-40.905 41.214l-0.465 0.412c-21.811 21.299-39.219 36.25-71.936 44.8-39.219 9.574-137.216 21.299-165.581-42.701-29.389-67.174-23.962-239.974-22.835-364.8 0-10.65 7.578-19.2 18.483-19.2h209.203c13.107 0 17.408 6.4 18.534 17.101 1.075 6.4 7.629 124.774 11.981 209.050 19.61-19.2 40.294-34.15 62.106-41.626 20.685-6.4 45.722-8.499 70.81-8.499 20.685 0 42.496 2.099 62.106 4.25-15.576 17.665-25.083 41.004-25.083 66.564 0 7.415 0.8 14.643 2.319 21.603l-0.122-0.666zM273.408 529.050c0-68.939-57.055-124.826-127.437-124.826s-127.437 55.886-127.437 124.826c0 68.939 57.055 124.826 127.437 124.826s127.437-55.886 127.437-124.826zM998.912 325.325c-27.187 62.976-126.31 52.275-165.53 42.701-32.717-8.55-50.176-23.501-71.936-44.851-13.056-11.725-26.112-25.6-41.37-41.574-15.258-16.026-43.571-46.95-54.477-52.224-27.238-8.602-76.288 1.024-120.934 10.598-30.464 6.451-59.904-11.725-66.458-41.574-0.841-3.574-1.323-7.678-1.323-11.895 0-26.245 18.683-48.127 43.474-53.072l0.345-0.057c16.384-3.226 50.125-16.026 110.080-16.026 25.037 0 50.074 2.099 70.758 8.499 21.811 7.475 41.421 22.426 62.106 41.626 4.352-83.2 10.906-201.626 11.981-208.026 1.075-9.574 6.554-17.050 18.534-17.050h209.152c10.906 0 18.483 8.55 18.483 19.2 1.126 122.675 5.478 296.55-22.835 363.725zM1005.466 529.050c0-68.939-57.055-124.826-127.437-124.826s-127.437 55.886-127.437 124.826c0 68.939 57.055 124.826 127.437 124.826s127.437-55.886 127.437-124.826zM664.525 764.774c0-19.149-4.352-37.325-13.107-54.374 28.365-13.824 58.88-26.624 86.067-37.376 14.182-5.274 25.088 11.776 15.258 22.426-11.136 12.107-20.311 26.24-26.879 41.745l-0.36 0.956c40.294 22.374 65.382 56.525 65.382 94.925 0 67.174-78.438 121.6-174.285 121.6-49.050 0-92.621-13.875-124.211-36.301 99.123-12.8 172.134-75.725 172.134-153.6zM345.344 669.85c-3.277-10.65-10.906-25.6-26.163-42.65-9.779-10.65 2.202-27.75 15.258-22.426 28.314 10.701 62.106 25.6 91.494 39.475 8.704-1.024 18.534-2.099 28.314-2.099 95.898 0 174.336 54.374 174.336 121.6 0 67.174-78.438 121.6-174.336 121.6-95.846 0-174.285-54.426-174.285-121.6 1.075-37.376 26.112-71.475 65.382-93.901zM541.44 787.2c13.056 0 23.962-10.65 23.962-23.45s-10.906-23.501-24.013-23.501c-0.016 0-0.035 0-0.055 0-13.061 0-23.677 10.473-23.907 23.479v0.022c0 12.8 10.906 23.45 23.962 23.45zM455.373 787.2c13.056 0 23.962-10.65 23.962-23.45s-10.906-23.501-23.962-23.501c-0.016 0-0.035 0-0.055 0-13.061 0-23.677 10.473-23.907 23.479v0.022c0 12.8 10.854 23.45 23.962 23.45zM369.306 787.2c13.056 0 23.962-10.65 23.962-23.45s-10.906-23.501-23.962-23.501c-0.016 0-0.035 0-0.055 0-13.061 0-23.677 10.473-23.907 23.479v0.022c0 12.8 10.854 23.45 23.962 23.45z" />
<glyph unicode="&#xe949;" glyph-name="mypartners" d="M432.486 207.974c2.15 7.475 4.352 13.875 7.629 20.275-33.792-4.25-65.382-5.325-81.715 0-10.906 5.325-39.219 36.301-54.477 52.275-13.172 14.825-26.678 28.412-40.905 41.214l-0.465 0.412c-21.811 21.299-39.219 36.25-71.936 44.8-39.219 9.574-137.216 21.299-165.581-42.701-29.389-67.174-23.962-239.974-22.835-364.8 0-10.65 7.578-19.2 18.483-19.2h209.203c13.107 0 17.408 6.4 18.534 17.101 1.075 6.4 7.629 124.774 11.981 209.050 19.61-19.2 40.294-34.15 62.106-41.626 20.685-6.4 45.722-8.499 70.81-8.499 20.685 0 42.496 2.099 62.106 4.25-15.576 17.665-25.083 41.004-25.083 66.564 0 7.415 0.8 14.643 2.319 21.603l-0.122-0.666zM273.408 529.050c0-68.939-57.055-124.826-127.437-124.826s-127.437 55.886-127.437 124.826c0 68.939 57.055 124.826 127.437 124.826s127.437-55.886 127.437-124.826zM998.912 325.325c-27.187 62.976-126.31 52.275-165.53 42.701-32.717-8.55-50.176-23.501-71.936-44.851-13.056-11.725-26.112-25.6-41.37-41.574-15.258-16.026-43.571-46.95-54.477-52.224-27.238-8.602-76.288 1.024-120.934 10.598-30.464 6.451-59.904-11.725-66.458-41.574-0.841-3.574-1.323-7.678-1.323-11.895 0-26.245 18.683-48.127 43.474-53.072l0.345-0.057c16.384-3.226 50.125-16.026 110.080-16.026 25.037 0 50.074 2.099 70.758 8.499 21.811 7.475 41.421 22.426 62.106 41.626 4.352-83.2 10.906-201.626 11.981-208.026 1.075-9.574 6.554-17.050 18.534-17.050h209.152c10.906 0 18.483 8.55 18.483 19.2 1.126 122.675 5.478 296.55-22.835 363.725zM1005.466 529.050c0-68.939-57.055-124.826-127.437-124.826s-127.437 55.886-127.437 124.826c0 68.939 57.055 124.826 127.437 124.826s127.437-55.886 127.437-124.826zM664.525 764.774c0-19.149-4.352-37.325-13.107-54.374 28.365-13.824 58.88-26.624 86.067-37.376 14.182-5.274 25.088 11.776 15.258 22.426-11.136 12.107-20.311 26.24-26.879 41.745l-0.36 0.956c40.294 22.374 65.382 56.525 65.382 94.925 0 67.174-78.438 121.6-174.285 121.6-49.050 0-92.621-13.875-124.211-36.301 99.123-12.8 172.134-75.725 172.134-153.6zM345.344 669.85c-3.277-10.65-10.906-25.6-26.163-42.65-9.779-10.65 2.202-27.75 15.258-22.426 28.314 10.701 62.106 25.6 91.494 39.475 8.704-1.024 18.534-2.099 28.314-2.099 95.898 0 174.336 54.374 174.336 121.6 0 67.174-78.438 121.6-174.336 121.6-95.846 0-174.285-54.426-174.285-121.6 1.075-37.376 26.112-71.475 65.382-93.901zM541.44 787.2c13.056 0 23.962-10.65 23.962-23.45s-10.906-23.501-24.013-23.501c-0.016 0-0.035 0-0.055 0-13.061 0-23.677 10.473-23.907 23.479v0.022c0 12.8 10.906 23.45 23.962 23.45zM455.373 787.2c13.056 0 23.962-10.65 23.962-23.45s-10.906-23.501-23.962-23.501c-0.016 0-0.035 0-0.055 0-13.061 0-23.677 10.473-23.907 23.479v0.022c0 12.8 10.854 23.45 23.962 23.45zM369.306 787.2c13.056 0 23.962-10.65 23.962-23.45s-10.906-23.501-23.962-23.501c-0.016 0-0.035 0-0.055 0-13.061 0-23.677 10.473-23.907 23.479v0.022c0 12.8 10.854 23.45 23.962 23.45z" />
<glyph unicode="&#xe94a;" glyph-name="notification-n" d="M768 362.667v213.333c0 141.385-114.615 256-256 256s-256-114.615-256-256v-213.333c0-31.086-8.311-60.231-22.832-85.333h557.664c-14.521 25.103-22.832 54.247-22.832 85.333zM938.667 192h-853.333c-56.889 0-56.889 85.333 0 85.333 47.128 0 85.333 38.205 85.333 85.333v213.333c0 188.513 152.82 341.333 341.333 341.333s341.333-152.82 341.333-341.333v-213.333c0-47.128 38.205-85.333 85.333-85.333 56.889 0 56.889-85.333 0-85.333zM622.72 42.591c-22.899-39.475-65.084-63.773-110.72-63.773s-87.821 24.298-110.72 63.773c-16.5 28.444 4.023 64.076 36.907 64.076h147.627c32.884 0 53.407-35.631 36.907-64.076z" />
<glyph unicode="&#xe94b;" glyph-name="profile-n" d="M512 448c-117.821 0-213.333 95.513-213.333 213.333s95.513 213.333 213.333 213.333c117.821 0 213.333-95.513 213.333-213.333s-95.513-213.333-213.333-213.333zM298.667 362.667h426.667c94.257 0 170.667-76.41 170.667-170.667v-128c0-23.564-19.103-42.667-42.667-42.667h-682.667c-23.564 0-42.667 19.103-42.667 42.667v128c0 94.257 76.41 170.667 170.667 170.667z" />
<glyph unicode="&#xe94c;" glyph-name="myorders" horiz-adv-x="1186" d="M808.421 43.789h161.684v-107.789h-970.105v107.789h161.684v134.737c0 74.698 101.43 137.378 239.023 155.917 6.143 11.050 9.774 24.23 9.809 38.255v0.011c0 12.396-3.611 23.875-8.893 34.708-46.727 31.96-78.255 89.142-78.255 155.109 0 100.46 72.381 181.895 161.684 181.895s161.684-81.435 161.684-181.895c0-65.967-31.528-123.203-78.255-155.109-5.332-10.076-8.586-21.979-8.891-34.612l-0.002-0.096c0-13.689 3.557-26.678 9.809-38.265 137.593-18.486 239.023-81.219 239.023-155.917v-134.737zM1185.684 717.474c0-133.944-108.583-242.526-242.526-242.526s-242.526 108.583-242.526 242.526v0c0 133.944 108.583 242.526 242.526 242.526s242.526-108.583 242.526-242.526v0zM1077.895 744.421h-107.789v107.789h-53.895v-161.684h161.684v53.895z" />
<glyph unicode="&#xe94d;" glyph-name="search-n" d="M732.844 287.496l193.326-193.326c16.662-16.662 16.662-43.677 0-60.34s-43.677-16.662-60.34 0l-193.326 193.326c-61.751-48.737-139.731-77.823-224.504-77.823-200.295 0-362.667 162.371-362.667 362.667s162.371 362.667 362.667 362.667c200.295 0 362.667-162.371 362.667-362.667 0-84.773-29.086-162.753-77.823-224.504zM646.816 318.646c48.591 49.955 78.517 118.16 78.517 193.354 0 153.167-124.166 277.333-277.333 277.333s-277.333-124.166-277.333-277.333c0-153.167 124.166-277.333 277.333-277.333 75.194 0 143.399 29.926 193.354 78.517 0.819 0.98 1.689 1.932 2.609 2.853s1.873 1.79 2.853 2.609z" />
<glyph unicode="&#xe94f;" glyph-name="agenda-white" d="M512-21.333c-259.206 0-469.333 210.128-469.333 469.333s210.128 469.333 469.333 469.333c259.206 0 469.333-210.128 469.333-469.333s-210.128-469.333-469.333-469.333zM512 64c212.077 0 384 171.923 384 384s-171.923 384-384 384c-212.077 0-384-171.923-384-384s171.923-384 384-384zM938.667 490.667c23.564 0 42.667-19.103 42.667-42.667s-19.103-42.667-42.667-42.667h-170.667c-23.564 0-42.667 19.103-42.667 42.667s19.103 42.667 42.667 42.667h170.667zM256 490.667c23.564 0 42.667-19.103 42.667-42.667s-19.103-42.667-42.667-42.667h-170.667c-23.564 0-42.667 19.103-42.667 42.667s19.103 42.667 42.667 42.667h170.667zM554.667 704c0-23.564-19.103-42.667-42.667-42.667s-42.667 19.103-42.667 42.667v170.667c0 23.564 19.103 42.667 42.667 42.667s42.667-19.103 42.667-42.667v-170.667zM554.667 21.333c0-23.564-19.103-42.667-42.667-42.667s-42.667 19.103-42.667 42.667v170.667c0 23.564 19.103 42.667 42.667 42.667s42.667-19.103 42.667-42.667v-170.667z" />
<glyph unicode="&#xe953;" glyph-name="plus_n" d="M554.667 490.667h256c23.564 0 42.667-19.103 42.667-42.667s-19.103-42.667-42.667-42.667h-256v-256c0-23.564-19.103-42.667-42.667-42.667s-42.667 19.103-42.667 42.667v256h-256c-23.564 0-42.667 19.103-42.667 42.667s19.103 42.667 42.667 42.667h256v256c0 23.564 19.103 42.667 42.667 42.667s42.667-19.103 42.667-42.667v-256z" />
<glyph unicode="&#xe957;" glyph-name="attach_n" d="M872.737 482.411c14.739 14.739 38.635 14.739 53.373 0s14.739-38.635 0-53.373l-346.835-346.835c-103.219-103.219-270.571-103.219-373.79 0s-103.219 270.571 0 373.79l346.835 346.835c73.726 73.726 193.259 73.726 266.984 0s73.726-193.259-0.015-266.999l-347.198-346.82c-44.232-44.232-115.947-44.232-160.179 0s-44.232 115.947 0.016 160.194l320.417 320.039c14.747 14.73 38.643 14.716 53.373-0.031s14.716-38.643-0.031-53.373l-320.401-320.024c-14.755-14.755-14.755-38.677 0-53.432s38.677-14.755 53.447 0.015l347.198 346.82c44.249 44.249 44.249 115.989 0 160.238s-115.989 44.249-160.238 0l-346.835-346.835c-73.742-73.742-73.742-193.302 0-267.044s193.302-73.742 267.044 0l346.835 346.835z" />
<glyph unicode="&#xe95f;" glyph-name="play" d="M512 832c-212.070 0-384-171.93-384-384s171.93-384 384-384c212.070 0 384 171.93 384 384s-171.93 384-384 384zM644.71 427.648l-192-120.013c-3.605-2.279-7.994-3.632-12.698-3.632-13.261 0-24.011 10.749-24.013 24.009v0 240c0 0.005 0 0.011 0 0.017 0 13.248 10.739 23.987 23.987 23.987 4.715 0 9.113-1.361 12.821-3.71l-0.098 0.058 192-120.013c6.8-4.324 11.246-11.819 11.246-20.352s-4.446-16.028-11.149-20.294l-0.097-0.058z" />
<glyph unicode="&#xe966;" glyph-name="overdue" d="M512-21.333c-259.2 0-469.333 210.133-469.333 469.333s210.133 469.333 469.333 469.333 469.333-210.133 469.333-469.333-210.133-469.333-469.333-469.333zM512 64c212.077 0 384 171.923 384 384s-171.923 384-384 384v0c-212.077 0-384-171.923-384-384s171.923-384 384-384v0zM670.165 350.165c7.41-7.665 11.977-18.12 11.977-29.641 0-23.564-19.103-42.667-42.667-42.667-11.521 0-21.976 4.567-29.653 11.989l-127.988 127.988c-7.722 7.719-12.499 18.384-12.501 30.165v256.001c0 23.564 19.103 42.667 42.667 42.667s42.667-19.103 42.667-42.667v0-238.336l115.499-115.499z" />
<glyph unicode="&#xe976;" d="M512 168.727c-179.945 0-325.818 145.873-325.818 325.818s145.873 325.818 325.818 325.818 325.818-145.873 325.818-325.818-145.873-325.818-325.818-325.818zM418.909 508.137v-27.183h79.5v-79.5h27.183v79.5h79.5v27.183h-79.5v79.5h-27.183v-79.5h-79.5z" />
<glyph unicode="&#xe977;" d="M512 168.727c-179.945 0-325.818 145.873-325.818 325.818s145.873 325.818 325.818 325.818 325.818-145.873 325.818-325.818-145.873-325.818-325.818-325.818zM418.909 508.137v-27.183h79.5v-79.5h27.183v79.5h79.5v27.183h-79.5v79.5h-27.183v-79.5h-79.5z" />
<glyph unicode="&#xe978;" glyph-name="burn" d="M925.632 360.448c-12.736 152.704-89.728 248.448-157.696 332.864-62.912 78.208-117.248 145.728-117.248 245.312-0.166 8.447-5.237 15.67-12.475 18.954l-0.133 0.054c-3.089 1.509-6.721 2.391-10.56 2.391-5.028 0-9.703-1.514-13.593-4.111l0.089 0.056c-101.952-67.392-187.136-180.928-216.896-289.408-20.608-75.52-23.36-160.32-23.744-216.32-94.272 18.56-115.584 148.672-115.84 150.080-1.254 7.034-5.773 12.8-11.903 15.752l-0.129 0.056c-3.174 1.591-6.915 2.522-10.875 2.522-3.64 0-7.097-0.787-10.208-2.201l0.155 0.063c-4.928-2.24-121.28-56.768-128.064-274.752-0.335-5.595-0.526-12.137-0.526-18.724 0-1.067 0.005-2.134 0.015-3.199l-0.001 0.163c0-211.776 186.624-384 416-384h1.216c228.8 0.64 414.784 172.672 414.784 384 0 10.56-2.368 40.384-2.368 40.384zM512-21.312c-76.48 0-138.688 61.184-138.688 136.32 0 2.56 0 5.12 0.192 8.32 0.96 31.744 7.488 53.376 14.592 67.776 13.44-26.56 37.376-51.008 76.352-51.008 12.8 0 23.040 9.536 23.040 21.312 0 30.4 0.704 65.408 8.96 97.024 7.232 28.032 24.64 57.92 46.72 81.792 9.856-31.040 28.992-56.128 47.68-80.64 26.752-35.136 54.4-71.36 59.264-133.248 0.256-3.648 0.576-7.36 0.576-11.328 0-75.136-62.208-136.32-138.688-136.32z" />
<glyph unicode="&#xe979;" glyph-name="more" d="M630.154 841.846c0-65.255-52.899-118.154-118.154-118.154s-118.154 52.899-118.154 118.154c0 65.255 52.899 118.154 118.154 118.154s118.154-52.899 118.154-118.154zM630.154 448c0-65.255-52.899-118.154-118.154-118.154s-118.154 52.899-118.154 118.154c0 65.255 52.899 118.154 118.154 118.154s118.154-52.899 118.154-118.154zM630.154 54.154c0-65.255-52.899-118.154-118.154-118.154s-118.154 52.899-118.154 118.154c0 65.255 52.899 118.154 118.154 118.154s118.154-52.899 118.154-118.154z" />
<glyph unicode="&#xe97a;" glyph-name="comment" d="M921.6 891.733h-819.2c-56.32 0-102.4-47.923-102.4-106.496v-780.971l204.8 35.499h716.8c56.32 0 102.4 47.923 102.4 106.496v638.976c0 58.573-46.080 106.496-102.4 106.496z" />
<glyph unicode="&#xe97b;" glyph-name="flag" d="M232.842-47.616v338.944l712.389 278.607-712.389 278.607v111.458h-118.784v-1007.616c-158.484-21.819 277.346-21.819 118.784 0z" />
<glyph unicode="&#xe97c;" glyph-name="like" d="M988.416 391.616c23.424 27.968 35.2 61.056 35.2 99.2 0 34.624-12.16 64.64-36.48 89.92-24.32 25.344-53.12 37.952-86.4 37.952h-177.152c2.782 11.604 6.963 21.826 12.449 31.19l-0.289-0.534c7.309 12.874 15.343 29.061 22.595 45.668l1.405 3.612c4.032 9.792 8.064 23.040 12.16 39.936 3.845 15.197 6.061 32.647 6.080 50.611v0.013c0.094 2.787 0.147 6.063 0.147 9.352 0 16.446-1.333 32.581-3.898 48.302l0.231-1.718c-1.641 12.493-4.33 23.737-8.047 34.502l0.367-1.222c-4.452 11.501-9.617 21.39-15.723 30.599l0.363-0.583c-6.747 10.754-15.292 19.727-25.306 26.749l-0.294 0.195c-11.035 7.283-23.803 13.189-37.432 17.046l-0.968 0.234c-15.119 4.478-32.49 7.055-50.462 7.055-0.822 0-1.643-0.005-2.463-0.016l0.125 0.001c-0.062 0-0.135 0.001-0.208 0.001-11.322 0-21.505-4.875-28.564-12.641l-0.028-0.032c-8.84-9.442-16.156-20.449-21.469-32.536l-0.291-0.744c-4.69-9.741-8.953-21.255-12.156-33.202l-0.324-1.422c-2.304-9.792-4.992-23.296-8-40.64-3.84-18.624-6.72-32.064-8.64-40.32-3.329-12.608-7.155-23.338-11.754-33.646l0.554 1.39c-5.504-13.312-12.16-24-19.84-32-14.080-14.592-35.584-41.28-64.64-79.872-20.864-28.416-42.368-55.296-64.576-80.64-22.144-25.28-38.4-38.4-48.64-39.232-10.984-0.892-20.636-5.959-27.486-13.593l-0.034-0.039c-7.129-7.371-11.523-17.426-11.523-28.507 0-0.171 0.001-0.341 0.003-0.511v0.026-426.88c0-11.52 4.096-21.44 12.16-29.632 7.277-7.692 17.429-12.598 28.729-12.99l0.071-0.002c14.976-0.448 48.64-10.24 101.12-29.312 32.832-11.52 58.496-20.352 77.056-26.304 18.56-6.016 44.48-12.416 77.76-19.328 33.28-6.848 64-10.304 92.096-10.304h82.56c56.704 0.896 98.688 18.176 126.016 51.904 24.704 30.72 35.2 70.848 31.36 120.576 16.64 16.384 28.16 37.248 34.56 62.592 3.448 11.668 5.431 25.075 5.431 38.944s-1.984 27.275-5.683 39.95l0.252-1.006c17.261 23.248 27.632 52.509 27.632 84.193 0 2.487-0.064 4.96-0.19 7.416l0.014-0.344c-0.575 18.287-4.046 35.586-9.967 51.701l0.367-1.141zM225.216 533.44h-184.32c-0.062 0-0.135 0.001-0.208 0.001-11.322 0-21.505-4.875-28.564-12.641l-0.028-0.032c-7.478-7.548-12.099-17.939-12.099-29.409 0-0.168 0.001-0.337 0.003-0.505v0.026-426.24c0-11.52 4.032-21.504 12.16-29.952 7.095-7.76 17.263-12.609 28.563-12.609 0.083 0 0.167 0 0.25 0.001h184.243c0.070 0 0.154-0.001 0.237-0.001 11.3 0 21.468 4.849 28.536 12.579l0.027 0.030c7.517 7.565 12.162 17.989 12.162 29.499 0 0.159-0.001 0.318-0.003 0.477v-0.024 426.24c0.002 0.142 0.003 0.31 0.003 0.479 0 11.502-4.646 21.918-12.165 29.475l0.002-0.002c-7.088 7.797-17.271 12.673-28.592 12.673-0.073 0-0.146 0-0.219-0.001h0.011zM151.616 119.552c-7.137-7.574-17.235-12.29-28.435-12.29-0.128 0-0.257 0.001-0.385 0.002h0.020c-0.235-0.005-0.512-0.008-0.79-0.008-11.168 0-21.233 4.72-28.31 12.275l-0.020 0.021c-7.295 7.552-11.79 17.85-11.79 29.197 0 0.378 0.005 0.755 0.015 1.13l-0.001-0.055c0 11.52 3.904 21.568 11.776 30.016 7.035 7.798 17.175 12.678 28.455 12.678 0.234 0 0.467-0.002 0.7-0.006h-0.035c11.072 0 20.672-4.224 28.8-12.672s12.16-18.432 12.16-30.016c0.007-0.283 0.011-0.616 0.011-0.949 0-11.456-4.652-21.825-12.17-29.322l-0.001-0.001z" />
</font>
</defs>
</svg>
